<?xml version="1.0" encoding="UTF-8" standalone="no"?>
<svg
   xmlns:dc="http://purl.org/dc/elements/1.1/"
   xmlns:cc="http://creativecommons.org/ns#"
   xmlns:rdf="http://www.w3.org/1999/02/22-rdf-syntax-ns#"
   xmlns:svg="http://www.w3.org/2000/svg"
   xmlns="http://www.w3.org/2000/svg"
   xmlns:sodipodi="http://sodipodi.sourceforge.net/DTD/sodipodi-0.dtd"
   xmlns:inkscape="http://www.inkscape.org/namespaces/inkscape"
   version="1.1"
   x="0px"
   y="0px"
   viewBox="0 0 100 100"
   enable-background="new 0 0 100 100"
   xml:space="preserve"
   id="svg10"
   sodipodi:docname="deconnecte.svg"
   inkscape:version="0.92.3 (2405546, 2018-03-11)"><metadata
     id="metadata16"><rdf:RDF><cc:Work
         rdf:about=""><dc:format>image/svg+xml</dc:format><dc:type
           rdf:resource="http://purl.org/dc/dcmitype/StillImage" /><dc:title></dc:title></cc:Work></rdf:RDF></metadata><defs
     id="defs14" /><sodipodi:namedview
     pagecolor="#ffffff"
     bordercolor="#666666"
     borderopacity="1"
     objecttolerance="10"
     gridtolerance="10"
     guidetolerance="10"
     inkscape:pageopacity="0"
     inkscape:pageshadow="2"
     inkscape:window-width="925"
     inkscape:window-height="480"
     id="namedview12"
     showgrid="false"
     inkscape:zoom="2.36"
     inkscape:cx="3.3898305"
     inkscape:cy="50"
     inkscape:window-x="0"
     inkscape:window-y="27"
     inkscape:window-maximized="0"
     inkscape:current-layer="svg10" /><g
     id="g8"><path
       d="M54.319,77.41v-8.26c2.116-0.449,4.164-1.219,6.058-2.299l1.229-0.701L25.027,29.573v8.571h3.982v10.476   c0,10.094,7.163,18.542,16.672,20.54v8.25c0,10.121,8.233,18.354,18.354,18.354H83.02v-8.637H64.036   C58.678,87.127,54.319,82.77,54.319,77.41z M27.188,35.985v-1.2l1.199,1.2H27.188z M31.169,48.621v-9.853l26.87,26.871   c-1.669,0.791-3.449,1.307-5.268,1.578c-0.361,0.057-0.714,0.104-1.053,0.139c-0.571,0.053-1.144,0.096-1.719,0.096   c-0.54,0-1.072-0.035-1.601-0.08c-0.468-0.047-0.944-0.105-1.458-0.191c-0.006,0-0.012-0.002-0.018-0.002l-0.79-0.129   C37.6,65.26,31.169,57.68,31.169,48.621z M80.86,93.605H64.036c-8.931,0-16.195-7.266-16.195-16.195V69.5   c0.147,0.016,0.301,0.012,0.45,0.023c0.979,0.09,1.895,0.111,2.85,0.049c0.34-0.018,0.68-0.051,1.02-0.084v7.922   c0,6.549,5.327,11.877,11.876,11.877H80.86V93.605z"
       id="path2" /><path
       d="M86.387,76.176l-66.16-66.161c-0.884-0.884-2.059-1.37-3.309-1.37s-2.425,0.486-3.308,1.37   c-0.884,0.883-1.37,2.059-1.37,3.308c0,1.25,0.486,2.425,1.369,3.308l66.162,66.161c0.884,0.885,2.059,1.373,3.309,1.373   s2.425-0.488,3.307-1.371c0.885-0.883,1.372-2.059,1.372-3.309S87.271,77.061,86.387,76.176z M84.86,81.266   c-0.951,0.951-2.609,0.953-3.563,0L15.137,15.103c-0.476-0.475-0.738-1.107-0.738-1.78c0-0.673,0.263-1.306,0.738-1.782   s1.108-0.737,1.781-0.737s1.306,0.262,1.781,0.737L84.86,77.703c0.477,0.477,0.738,1.109,0.739,1.781   C85.6,80.156,85.337,80.789,84.86,81.266z"
       id="path4" /><path
       d="M37.096,25.356l32.03,32.031l0.58-1.594c0.852-2.34,1.284-4.753,1.284-7.172V38.145h3.98V23.197H66.06V4.236h-7.107v18.961   H41.048V4.236h-7.108V22.2L37.096,25.356L37.096,25.356z M61.111,6.395H63.9v16.802h-2.789V6.395z M58.952,25.356h7.107h6.752   v10.629h-3.98v12.635c0,1.604-0.213,3.206-0.634,4.782L40.149,25.356h0.898H58.952z M36.1,6.395h2.789v16.802H37.99L36.1,21.306   V6.395z"
       id="path6" /></g></svg>