<?xml version="1.0" encoding="UTF-8" standalone="no"?>
<svg
   xmlns:dc="http://purl.org/dc/elements/1.1/"
   xmlns:cc="http://creativecommons.org/ns#"
   xmlns:rdf="http://www.w3.org/1999/02/22-rdf-syntax-ns#"
   xmlns:svg="http://www.w3.org/2000/svg"
   xmlns="http://www.w3.org/2000/svg"
   xmlns:sodipodi="http://sodipodi.sourceforge.net/DTD/sodipodi-0.dtd"
   xmlns:inkscape="http://www.inkscape.org/namespaces/inkscape"
   version="1.1"
   x="0px"
   y="0px"
   viewBox="0 0 512 512"
   enable-background="new 0 0 512 512"
   xml:space="preserve"
   id="svg8"
   sodipodi:docname="home.svg"
   inkscape:version="0.92.3 (2405546, 2018-03-11)"><metadata
     id="metadata14"><rdf:RDF><cc:Work
         rdf:about=""><dc:format>image/svg+xml</dc:format><dc:type
           rdf:resource="http://purl.org/dc/dcmitype/StillImage" /><dc:title></dc:title></cc:Work></rdf:RDF></metadata><defs
     id="defs12" /><sodipodi:namedview
     pagecolor="#ffffff"
     bordercolor="#666666"
     borderopacity="1"
     objecttolerance="10"
     gridtolerance="10"
     guidetolerance="10"
     inkscape:pageopacity="0"
     inkscape:pageshadow="2"
     inkscape:window-width="925"
     inkscape:window-height="480"
     id="namedview10"
     showgrid="false"
     inkscape:zoom="0.4609375"
     inkscape:cx="17.355932"
     inkscape:cy="256"
     inkscape:window-x="0"
     inkscape:window-y="27"
     inkscape:window-maximized="0"
     inkscape:current-layer="svg8" /><g
     id="g6"><path
       d="M509.329,267.344L262.515,20.404c-1.719-1.719-4-2.672-6.437-2.672c-2.438,0-4.719,0.938-6.438,2.672   c-1.766,1.75-246.971,247.08-246.971,247.08c-3.562,3.562-3.562,9.344,0,12.906c3.438,3.469,9.438,3.453,12.875,0L256.078,39.748   L496.454,280.25c3.453,3.422,9.438,3.422,12.891,0C512.892,276.688,512.892,270.906,509.329,267.344z"
       id="path2" /><path
       d="M439.798,281.906L262.796,104.858c-3.688-3.922-9.875-3.797-13.328-0.125L71.091,283.234   c-1.516,1.906-2.172,3.859-2.172,5.875v181.189c0,13.219,10.734,23.969,23.938,23.969h326.285c13.203,0,23.938-10.75,23.938-23.969   V288.984c0-2.422-0.938-4.703-2.625-6.406L439.798,281.906z M306.233,476.018H205.796V316.204h100.437V476.018z M324.438,476.018   V321.923c0-13.203-10.735-23.954-23.938-23.954h-88.984c-13.203,0-23.938,10.751-23.938,23.954v154.095H87.123V292.906   l168.955-169.032L424.876,292.75l0.016,183.268H324.438z"
       id="path4" /></g></svg>