<?xml version="1.0" encoding="UTF-8" standalone="no"?>
<svg
   xmlns:dc="http://purl.org/dc/elements/1.1/"
   xmlns:cc="http://creativecommons.org/ns#"
   xmlns:rdf="http://www.w3.org/1999/02/22-rdf-syntax-ns#"
   xmlns:svg="http://www.w3.org/2000/svg"
   xmlns="http://www.w3.org/2000/svg"
   xmlns:sodipodi="http://sodipodi.sourceforge.net/DTD/sodipodi-0.dtd"
   xmlns:inkscape="http://www.inkscape.org/namespaces/inkscape"
   version="1.1"
   x="0px"
   y="0px"
   viewBox="0 0 45 45"
   enable-background="new 0 0 48 48"
   xml:space="preserve"
   id="svg26"
   sodipodi:docname="lecture.svg"
   width="45"
   height="45"
   inkscape:version="0.92.3 (2405546, 2018-03-11)"><metadata
     id="metadata32"><rdf:RDF><cc:Work
         rdf:about=""><dc:format>image/svg+xml</dc:format><dc:type
           rdf:resource="http://purl.org/dc/dcmitype/StillImage" /><dc:title /></cc:Work></rdf:RDF></metadata><defs
     id="defs30" /><sodipodi:namedview
     pagecolor="#ffffff"
     bordercolor="#666666"
     borderopacity="1"
     objecttolerance="10"
     gridtolerance="10"
     guidetolerance="10"
     inkscape:pageopacity="0"
     inkscape:pageshadow="2"
     inkscape:window-width="1600"
     inkscape:window-height="836"
     id="namedview28"
     showgrid="false"
     inkscape:zoom="4.9166667"
     inkscape:cx="0.13928398"
     inkscape:cy="34.273051"
     inkscape:window-x="0"
     inkscape:window-y="27"
     inkscape:window-maximized="1"
     inkscape:current-layer="svg26" /><g
     id="g24"
     transform="matrix(0.8633949,0,0,0.8633949,2.5327599,3.4750819)"
     style="fill:#f58021;fill-opacity:1"><g
       id="g4"
       style="fill:#f58021;fill-opacity:1"><ellipse
         cx="40.400002"
         cy="32.5"
         rx="3.7"
         ry="4"
         id="ellipse2"
         style="fill:#f58021;fill-opacity:1" /></g><g
       id="g8"
       style="fill:#f58021;fill-opacity:1"><path
         d="m 14.9,18.6 c -0.7,-2.1 -1.1,-4.2 -0.5,-6.3 0.7,1 1.5,2 2.2,3 -0.1,-1.8 0.9,-3.7 2.4,-4.6 1.9,0.5 3.4,2 5.2,2.8 2.2,1 5,0.9 6.6,2.7 0.8,0.8 1.2,1.8 1.3,2.8 l 4.8,-0.8 C 36.6,16.4 36.4,14.5 36.1,12.7 35.6,9.4 35,5.8 32.5,3.7 31.5,2.9 30.3,2.3 29.1,1.8 27.6,1.2 26.1,0.7 24.6,0.6 23,0.5 21.4,1 20.4,2.2 20.3,1.8 19.7,1.6 19.3,1.5 16.6,1.2 14.1,3.3 13,5.8 c -1.1,2.5 -1.2,5.3 -1.3,8 -0.1,1.4 -0.2,2.7 -0.3,4.1 z"
         id="path6"
         inkscape:connector-curvature="0"
         style="fill:#f58021;fill-opacity:1" /></g><g
       id="g18"
       style="fill:#f58021;fill-opacity:1"><g
         id="g12"
         style="fill:#f58021;fill-opacity:1"><path
           d="m 24,47.4 c -0.2,0 -0.4,-0.1 -0.5,-0.2 -0.2,-0.1 -0.3,-0.3 -0.3,-0.6 V 22.2 c 0,-0.4 0.3,-0.7 0.6,-0.7 L 41.7,19 c 0.2,0 0.4,0 0.6,0.2 0.2,0.1 0.3,0.3 0.3,0.6 v 24.4 c 0,0.4 -0.3,0.7 -0.6,0.7 l -17.8,2.5 c -0.1,0 -0.2,0 -0.2,0 z M 24.7,22.9 V 45.8 L 41,43.5 V 20.6 Z"
           id="path10"
           inkscape:connector-curvature="0"
           style="fill:#f58021;fill-opacity:1" /></g><g
         id="g16"
         style="fill:#f58021;fill-opacity:1"><path
           d="m 24,47.4 c 0,0 -0.1,0 -0.1,0 L 6.1,44.9 C 5.7,44.8 5.5,44.5 5.5,44.2 V 19.7 C 5.5,19.5 5.6,19.3 5.8,19.1 5.9,19 6.1,19 6.3,19 l 17.8,2.5 c 0.4,0.1 0.6,0.4 0.6,0.7 v 24.4 c 0,0.2 -0.1,0.4 -0.3,0.6 0,0.1 -0.2,0.2 -0.4,0.2 z M 7,43.5 23.3,45.8 V 22.9 L 7,20.6 Z"
           id="path14"
           inkscape:connector-curvature="0"
           style="fill:#f58021;fill-opacity:1" /></g></g><g
       id="g22"
       style="fill:#f58021;fill-opacity:1"><ellipse
         cx="7.5999999"
         cy="32.5"
         rx="3.7"
         ry="4"
         id="ellipse20"
         style="fill:#f58021;fill-opacity:1" /></g></g></svg>