<?xml version="1.0" encoding="UTF-8" standalone="no"?>
<svg
   xmlns:dc="http://purl.org/dc/elements/1.1/"
   xmlns:cc="http://creativecommons.org/ns#"
   xmlns:rdf="http://www.w3.org/1999/02/22-rdf-syntax-ns#"
   xmlns:svg="http://www.w3.org/2000/svg"
   xmlns="http://www.w3.org/2000/svg"
   xmlns:sodipodi="http://sodipodi.sourceforge.net/DTD/sodipodi-0.dtd"
   xmlns:inkscape="http://www.inkscape.org/namespaces/inkscape"
   xml:space="preserve"
   style="shape-rendering:geometricPrecision;text-rendering:geometricPrecision;image-rendering:optimizeQuality;"
   viewBox="0 0 5.1376 5.1376"
   x="0px"
   y="0px"
   fill-rule="evenodd"
   clip-rule="evenodd"
   version="1.1"
   id="svg12"
   sodipodi:docname="retour.svg"
   inkscape:version="0.92.3 (2405546, 2018-03-11)"><metadata
     id="metadata16"><rdf:RDF><cc:Work
         rdf:about=""><dc:format>image/svg+xml</dc:format><dc:type
           rdf:resource="http://purl.org/dc/dcmitype/StillImage" /><dc:title></dc:title></cc:Work></rdf:RDF></metadata><sodipodi:namedview
     pagecolor="#ffffff"
     bordercolor="#666666"
     borderopacity="1"
     objecttolerance="10"
     gridtolerance="10"
     guidetolerance="10"
     inkscape:pageopacity="0"
     inkscape:pageshadow="2"
     inkscape:window-width="925"
     inkscape:window-height="480"
     id="namedview14"
     showgrid="false"
     inkscape:zoom="45.935846"
     inkscape:cx="0.17415593"
     inkscape:cy="2.5688"
     inkscape:window-x="0"
     inkscape:window-y="27"
     inkscape:window-maximized="0"
     inkscape:current-layer="svg12" /><defs
     id="defs4"><style
       type="text/css"
       id="style2">
   
    .fil0 {fill:black;fill-rule:nonzero}
   
  </style></defs><g
     id="g10"><path
       class="fil0"
       d="M2.1345 1.8295c0.3171,0 0.6341,0 0.9511,0 1.4797,0 1.5112,2.2789 0,2.2789 -0.5094,0 -1.0188,0 -1.5282,0 0,-0.2152 0,-0.4304 0,-0.6455 0.5094,0 1.0188,0 1.5282,0 0.652,0 0.652,-0.9878 0,-0.9878 -0.3146,0 -0.6294,0 -0.944,0 0.0713,0.056 0.1426,0.1121 0.2139,0.1681 0,0.209 0,0.4179 0,0.6268 -0.4752,-0.3732 -0.9503,-0.7466 -1.4252,-1.1204 0.4751,-0.3735 0.9501,-0.747 1.4252,-1.1205 0,0.2089 0,0.4179 0,0.6268 -0.0737,0.0579 -0.1473,0.1157 -0.221,0.1736zm-0.5189 0.3202c0.2232,-0.1762 0.4471,-0.3516 0.6706,-0.5273 0,-0.1503 0,-0.3006 0,-0.4509 -0.4147,0.326 -0.8293,0.6521 -1.2441,0.9781 0.4148,0.326 0.8294,0.652 1.2441,0.978 0,-0.1503 0,-0.3006 0,-0.4509 -0.2235,-0.1757 -0.447,-0.3513 -0.6706,-0.527zm1.47 -0.2509c-0.3464,0 -0.6928,0 -1.0392,0 -0.1064,0.0836 -0.2126,0.1672 -0.319,0.2508 0.1087,0.0854 0.2175,0.1708 0.3262,0.2562 0.344,0 0.6881,0 1.032,0 0.7405,0 0.7405,1.1263 0,1.1263 -0.4862,0 -0.9726,0 -1.4589,0 0,0.1691 0,0.338 0,0.507 0.4863,0 0.9727,0 1.4589,0 1.4404,0 1.3771,-2.1403 0,-2.1403z"
       id="path6" /><path
       class="fil0"
       d="M2.5688 0c1.4182,0 2.5688,1.1506 2.5688,2.5688 0,1.4182 -1.1506,2.5688 -2.5688,2.5688 -1.4182,0 -2.5688,-1.1506 -2.5688,-2.5688 0,-1.4182 1.1506,-2.5688 2.5688,-2.5688zm0 0.0848c-1.3721,0 -2.484,1.1119 -2.484,2.484 0,1.3721 1.1119,2.484 2.484,2.484 1.3721,0 2.484,-1.1119 2.484,-2.484 0,-1.3721 -1.1119,-2.484 -2.484,-2.484z"
       id="path8" /></g></svg>