<?xml version="1.0" encoding="UTF-8" standalone="no"?>
<svg
   xmlns:dc="http://purl.org/dc/elements/1.1/"
   xmlns:cc="http://creativecommons.org/ns#"
   xmlns:rdf="http://www.w3.org/1999/02/22-rdf-syntax-ns#"
   xmlns:svg="http://www.w3.org/2000/svg"
   xmlns="http://www.w3.org/2000/svg"
   xmlns:sodipodi="http://sodipodi.sourceforge.net/DTD/sodipodi-0.dtd"
   xmlns:inkscape="http://www.inkscape.org/namespaces/inkscape"
   version="1.1"
   x="0px"
   y="0px"
   viewBox="0 0 80 80"
   enable-background="new 0 0 80 80"
   xml:space="preserve"
   id="svg46"
   sodipodi:docname="origine.svg"
   inkscape:version="0.92.3 (2405546, 2018-03-11)"><metadata
     id="metadata52"><rdf:RDF><cc:Work
         rdf:about=""><dc:format>image/svg+xml</dc:format><dc:type
           rdf:resource="http://purl.org/dc/dcmitype/StillImage" /><dc:title></dc:title></cc:Work></rdf:RDF></metadata><defs
     id="defs50" /><sodipodi:namedview
     pagecolor="#ffffff"
     bordercolor="#666666"
     borderopacity="1"
     objecttolerance="10"
     gridtolerance="10"
     guidetolerance="10"
     inkscape:pageopacity="0"
     inkscape:pageshadow="2"
     inkscape:window-width="925"
     inkscape:window-height="480"
     id="namedview48"
     showgrid="false"
     inkscape:zoom="2.95"
     inkscape:cx="2.7118644"
     inkscape:cy="40"
     inkscape:window-x="0"
     inkscape:window-y="27"
     inkscape:window-maximized="0"
     inkscape:current-layer="svg46" /><g
     id="g884"
     style="fill:#800000"><path
       id="path2"
       d="M 39.9,64.2 C 39.6,64 39.3,64 39.2,63.8 c -0.4,-0.6 -0.8,-1.3 -1.3,-1.9 -0.2,-0.3 -0.4,-0.5 -0.6,-0.8 -0.4,-0.4 -0.9,-0.8 -1.4,-1.3 -0.3,0.5 -0.8,1 -1,1.6 -0.1,0.5 0,1.1 0.2,1.6 0.2,0.8 0.4,1.5 0.1,2.3 -0.1,0.2 -0.2,0.4 -0.4,0.6 -0.2,0.1 -0.4,0.1 -0.5,0.1 0,-0.1 -0.1,-0.2 -0.1,-0.3 0.3,-0.9 0,-1.8 -0.3,-2.7 -0.3,-0.9 0,-1.7 0.6,-2.4 0.4,-0.5 0.8,-1 1.1,-1.5 -0.1,0 -0.1,-0.1 -0.2,-0.1 -0.5,0.6 -1.1,1.2 -1.5,1.8 -0.8,1.1 -1.6,2.1 -2.2,3.3 -0.2,0.3 0,0.8 0,1.3 0,0.2 0.1,0.3 0.1,0.5 0.4,1.1 0.2,1.5 -1.1,2 0.7,-1 0.2,-1.9 0.2,-2.8 0,-0.6 -0.3,-0.8 -0.9,-0.6 -0.4,0.2 -0.8,0.5 -1.1,0.8 -0.1,0.1 -0.2,0.2 -0.3,0.3 0,-0.7 0.7,-1.5 1.5,-1.6 0.6,-0.1 0.9,-0.4 1.2,-0.9 0.6,-1 1.2,-2.1 1.8,-3.1 -1.4,-0.8 -2.5,0.4 -3.8,0.5 0,-0.1 -0.1,-0.2 -0.1,-0.3 0.7,-0.4 1.4,-0.8 2.2,-1.3 -0.3,-0.3 -0.7,-0.7 -1,-1 -0.1,-0.1 -0.2,-0.3 -0.3,-0.5 0.2,-0.1 0.3,-0.2 0.5,-0.2 0.6,0 1.3,0.5 1.5,1.1 0.2,0.6 1.4,1.1 1.8,0.6 1.7,-1.6 4,-2 6.1,-2.5 1,-0.3 1.8,-0.9 2.2,-1.9 0.3,-0.7 -0.4,-2 -1.3,-2.3 C 40,51.8 39,51.6 38.1,51.4 37.2,51.2 36.2,51 35.5,50.3 35.2,50 35,49.8 34.7,49.5 c -1.1,0.7 -1.3,1.9 -0.5,3 0.8,1 0.7,3.2 -0.1,4.2 -0.2,0.2 -0.5,0.3 -0.8,0.5 0.2,-0.9 0.4,-1.7 0.6,-2.5 C 34,54.1 33.8,53.5 33.3,53.1 33.1,53 33,52.7 33,52.4 c -0.1,-1.3 -0.1,-2.6 0.8,-3.7 0.1,-0.2 0.1,-0.5 0,-0.8 -0.1,0.3 -0.2,0.6 -0.4,0.9 -0.3,0.8 -0.7,1.4 -1.6,1.8 -1.1,0.5 -2.1,1.2 -3.2,1.8 -2,1.1 -3.2,2.8 -3.9,4.9 -0.2,0.7 -0.5,1.3 -0.4,2.1 0.1,0.7 -0.6,1.1 -1.3,1.4 -0.7,0.3 -0.8,0.6 -0.6,1.4 0.1,0.3 0.3,0.5 0.5,1 0,-0.4 0,-0.7 0.1,-1 0,0 0,-0.1 0.1,-0.2 0.6,0.2 1.3,0.3 2,0.5 0.4,-1 0.7,-2.1 -0.2,-3.2 -0.3,-0.4 -0.3,-0.8 -0.1,-1.3 0.4,-1 0.9,-2 1.8,-2.6 0.6,-0.4 0.7,-0.9 0.9,-1.4 0,-0.1 0.1,-0.3 0.2,-0.3 1.1,-1.1 2.5,-1.5 4.1,-1.8 -0.3,0.7 -0.8,0.9 -1.3,1 -0.9,0.2 -1.4,0.7 -2.1,1.2 -0.4,0.3 -0.3,0.6 0,0.9 0.5,0.8 0.7,1.6 0.4,2.5 -0.1,0.3 -0.3,0.6 -0.5,1 -0.5,-1 0.4,-2.3 -0.8,-2.6 -0.5,0.4 -1,0.6 -1.4,1 -0.4,0.5 -0.6,1.2 -0.9,1.8 0,0.1 0.1,0.3 0.2,0.4 0.2,0.3 0.4,0.6 0.6,0.9 0.3,0.5 0.4,1 0,1.5 0.2,0 0,0.2 0,0.5 -0.1,0.4 -0.1,0.8 -0.1,1.2 0,0.2 0.1,0.4 0.2,0.8 -0.5,-0.5 -0.8,-1 -1.2,-1.1 -0.5,-0.2 -1,0 -1.6,0 0.2,1.6 0,2.1 -0.6,2.6 -0.3,-1.5 -0.5,-3 -0.7,-4.5 -0.4,0.1 -0.6,0.3 -1,0.4 0.8,1.2 1.4,2.4 0.4,3.8 0.1,-1.3 -0.5,-2.3 -1.3,-3.4 -0.4,0.6 -0.6,1.2 -1,1.7 -0.5,0.7 -1.1,1.3 -1.7,1.9 -0.6,0.6 -0.9,1.4 -1,2.2 -0.2,1.2 -1.2,1.9 -2.1,2.6 0,0 -0.1,0 -0.2,0 -0.1,0 -0.1,0 -0.3,-0.1 0.2,-0.2 0.3,-0.3 0.5,-0.5 0.8,-0.6 1.3,-1.5 1.4,-2.5 0.1,-1.3 0.8,-2.2 1.8,-3 0.1,-0.1 0.3,-0.3 0.4,-0.4 0,0 0,-0.1 0,-0.1 -1.2,0 -2.2,0.4 -2.9,1.3 -0.1,0.1 -0.2,0.2 -0.4,0.2 -0.2,0 -0.5,0 -0.7,0 0.1,-0.2 0.1,-0.4 0.2,-0.6 0.8,-1.1 2,-1.5 3.3,-1.8 0.9,-0.2 1.6,-0.6 2.2,-1.5 0.4,-0.6 1.1,-0.9 1.7,-1.3 0.6,-0.4 1.3,-0.6 1.9,-0.9 0.2,-0.1 0.3,-0.3 0.4,-0.5 0.3,-0.8 0.5,-1.6 0.7,-2.4 0.3,-0.9 0.6,-1.8 1,-2.7 0.3,-0.8 1,-1.4 1.7,-1.8 1.1,-0.6 2.2,-1.2 3.4,-1.7 1.8,-0.7 2.2,-2.4 1.9,-4 -0.2,0.1 -0.3,0.2 -0.5,0.2 -1,0.4 -2.1,0.8 -3.1,1.1 -0.7,0.2 -1.2,0.7 -1.6,1.2 -0.2,0.3 -0.4,0.5 -0.7,0.8 0,-1.3 1.2,-2.7 2.4,-3.2 1,-0.4 2,-0.8 2.9,-1.2 0.5,-0.2 0.7,-0.6 0.6,-1.1 -0.1,-2.7 0.8,-5.1 2.4,-7.3 0.1,-0.2 0.2,-0.3 0.3,-0.5 0,0 0,-0.1 0,-0.2 -1.8,0.4 -3.6,0.8 -5.4,1.3 -1,0.3 -2,0.6 -3,1 -1.5,0.6 -2.4,1.8 -2.9,3.4 -0.3,0.9 -0.4,1.9 -0.7,2.8 -0.1,0.3 -0.2,0.6 -0.4,0.9 0.2,0.1 0.5,0.2 0.8,0.4 1.2,0.6 1.5,1 1,2.3 -0.2,0.7 -0.6,1.3 -1.2,1.7 -0.1,0 -0.1,-0.1 -0.2,-0.1 0.1,-0.4 0.3,-0.8 0.4,-1.2 0,-0.1 0.1,-0.2 0.2,-0.3 0.3,-1.1 0.2,-1.3 -0.8,-1.7 -0.6,-0.2 -1.2,-0.4 -1.4,-1.3 -0.5,1.1 -0.9,1.9 -1.3,2.9 0.6,0 0.9,0 1.3,0 0.7,0 1.1,0.4 1.4,1 0,0.1 0,0.2 0,0.3 -0.1,0 -0.2,0 -0.3,-0.1 -0.2,-0.2 -0.4,-0.4 -0.6,-0.5 -0.4,-0.3 -0.8,-0.3 -1.2,-0.1 -0.5,0.2 -0.2,0.5 -0.2,0.9 0,0.6 -0.1,1.1 -0.2,1.7 0.4,-0.3 0.8,-0.7 1.4,-1.2 0.1,0.8 -0.5,1.2 -0.9,1.5 -0.5,0.4 -1,0.7 -1.7,0.4 0.3,-0.2 0.5,-0.3 0.8,-0.5 -0.2,-0.8 -0.5,-1.6 -0.6,-2.5 -0.1,-0.8 0,-1.7 0.3,-2.4 0.5,-1 1.3,-1.9 1.9,-2.9 0.2,-0.3 0.4,-0.3 0.6,0.1 0.5,-1.3 1,-2.6 1.5,-3.8 0.6,-1.4 1.8,-2.3 3.2,-2.8 1.7,-0.7 3.4,-1.1 5.1,-1.7 1.5,-0.5 3,-1.2 4.4,-1.8 0.6,-0.3 1.1,-0.9 1.6,-1.3 0.2,-0.2 0.3,-0.4 0.5,-0.6 0.1,0 0.2,0.1 0.2,0.1 -0.1,0.3 -0.2,0.6 -0.3,0.8 -0.7,1.8 -1.6,3.5 -2.7,5.2 -0.3,0.5 -0.6,1 -0.9,1.5 -0.6,0.9 -0.7,2 -0.7,3 0,1.3 0.1,2.6 0.2,4.1 0.1,-1.3 0.2,-2.5 0.4,-3.6 0.1,-1.1 0.6,-2.1 1.2,-3.1 1,-1.9 2.5,-3.5 4.1,-5 0.5,-0.4 0.9,-0.9 1.2,-1.4 0.5,-0.8 1.9,-0.8 2.3,0.1 0.1,0.3 0.4,0.5 0.7,0.7 1.4,0.8 2.8,1.4 4.1,2.2 1.3,0.8 2.5,1.7 3.7,2.5 0.1,-0.3 0.1,-0.7 0.3,-1.3 0.6,0.4 0.4,0.9 0.4,1.4 -0.1,0.5 0,1.1 0,1.6 -0.1,1.4 0.3,2.9 -0.5,4.4 -0.6,1.1 -0.4,2.3 -0.1,3.5 0,0.1 0.1,0.2 0.1,0.3 -0.1,1.1 0.6,1.7 1.3,2.3 0.8,0.7 0.7,0.9 -0.1,1.5 -0.3,-0.4 -0.6,-0.9 -0.9,-1.4 -0.4,0.4 -0.6,0.7 -0.8,0.8 -0.3,-1.9 -0.6,-3.8 -0.9,-5.9 -1,0.8 -1.9,1.6 -2.7,2.3 -0.1,-0.2 -0.3,-0.4 -0.5,-0.7 -0.7,-0.7 -1,-1.6 -1.1,-2.6 -0.1,-0.5 -0.2,-0.9 -0.8,-1 -0.6,-0.2 -1.1,-0.5 -1,-1.4 0.5,0.1 0.9,0.1 1.3,0.2 -0.2,-1 -0.3,-2 -0.7,-3 -0.3,-0.9 -0.9,-1.7 -1.3,-2.6 -0.7,0.1 -1.3,0.2 -1.9,0.4 -0.5,0.1 -1,-0.1 -1.2,-0.6 0,-0.1 0.1,-0.4 0.2,-0.4 0.5,-0.1 1,-0.3 1.4,-0.3 0.4,-0.1 0.9,0 1.4,0 0.4,-1.4 0.4,-1.6 -0.7,-2.3 -0.9,1 -1.9,1.9 -2.8,2.9 -0.2,0.2 -0.2,0.7 -0.1,0.9 0.1,0.2 0.5,0.2 0.8,0.3 0.6,0.1 1.3,0.2 2,0.4 0,0 0,0 0,0 0.1,-0.2 0.3,-0.4 0.4,-0.6 0.1,0.2 0.3,0.4 0.4,0.7 0.2,0.8 0.3,1.6 0.5,2.5 0.2,0.7 0,1.3 -0.6,1.8 -0.5,0.4 -0.9,0.8 -1.4,1.1 -0.6,0.4 -0.8,1.2 -0.5,1.8 0.1,0.1 0.3,0.2 0.4,0.3 0.6,0.1 1.2,0.2 1.8,0.8 -0.5,0 -0.9,-0.1 -1.2,-0.1 0.4,0.7 0.8,1.4 1.2,2.2 0,0.1 -0.2,0.2 -0.3,0.4 0.9,0.9 1.3,2 1.3,3.3 0,0.9 -0.6,1.3 -1.4,1 0,-0.8 0,-1.5 0,-2.3 0,-0.6 -0.4,-1 -1,-1.2 C 41.8,49.8 41,49.5 40.2,49.3 39,49 37.8,48.7 36.9,47.7 36.6,47.3 36,47 35.5,46.6 c -0.1,0.5 -0.3,0.9 -0.1,1.2 0.3,0.7 0.9,1.3 1.8,1.4 0.8,0.1 1.5,0.2 2.3,0.4 1.9,0.5 2.9,2.1 3.6,3.7 0.2,0.5 0.1,1.1 -0.4,1.6 -0.5,0.5 -0.9,1.1 -1.4,1.5 -0.4,0.3 -1,0.4 -1.5,0.7 -0.2,0.1 -0.4,0.2 -0.6,0.4 -0.5,0.5 -0.4,0.9 0.3,1.1 1,0.3 1.9,0.8 2.5,1.8 0.2,0.4 0.7,0.6 1,0.9 0.2,0.1 0.3,0.2 0.6,0.4 -0.8,0.3 -1.8,0 -2.3,-0.8 C 40.6,60.7 40,60.2 39,60 c 0,0.5 -0.1,1 -0.1,1.5 0,0.2 0.3,0.5 0.6,0.6 0.9,0.3 1.8,0.7 2.4,1.6 0.1,0.2 0.2,0.3 0.2,0.5 0,0.1 -0.1,0.1 -0.1,0.2 -0.8,-0.4 -1.6,-0.9 -2.4,-1.3 -0.1,0 -0.1,0.1 -0.2,0.1 0.2,0.2 0.3,0.5 0.5,1 z m 1.5,-20.4 c -0.2,-0.2 -0.4,-0.3 -0.6,-0.5 -0.7,-0.7 -1.4,-1.5 -1.5,-2.6 0,-0.3 0,-0.8 0.5,-0.7 0.6,0 1,0.5 0.9,1 -0.2,0.7 0.2,1.4 1,1.7 0,-0.3 0.1,-0.6 0,-0.9 -0.1,-0.6 -0.2,-1.2 -0.4,-1.8 0,-0.2 -0.2,-0.3 -0.4,-0.4 -0.6,-0.3 -1.6,-0.2 -1.4,-1.4 -1.6,1.5 -2.8,3 -3.3,5.1 0,0.1 0,0.3 0,0.4 0.2,0.7 0.4,1.4 0.6,2.2 0.1,0.5 0.5,0.8 0.9,0.9 0.4,0.1 0.7,0.2 1.1,0.3 0.5,0 1.1,0 1.6,-0.1 0.1,0 0.3,-0.3 0.3,-0.4 -0.1,-1.1 0,-2 0.7,-2.8 z m 5.8,-4.5 c -0.3,0.5 -0.6,0.9 -0.7,1.4 -0.1,0.5 0,1.1 0,1.6 0.1,0.6 0.1,1.1 0.3,1.7 0.1,0.3 0.3,0.7 0.3,1 0.1,1 0.3,2 1,2.8 0.2,-0.3 0.3,-0.5 0.5,-0.7 0.8,-1 1.7,-2 2.4,-3.1 0.5,-0.8 0.8,-1.7 0.4,-2.7 -0.8,-1.8 -2.6,-2.5 -4,-3.7 0.3,0.9 0.6,1.7 1,2.5 0.1,0.2 0.2,0.4 0.2,0.5 0,0.2 -0.1,0.4 -0.1,0.8 C 47.6,40.9 47.6,40 47.2,39.3 Z M 44.8,36 c -0.1,0.3 -0.1,0.6 -0.2,0.9 0,0.1 0,0.3 0,0.4 0.6,0.7 1.3,1.4 1.9,2 C 47,38 46.6,36.8 44.8,36 Z m -8.2,22.3 c 0,1.1 0.3,1.8 1.3,2.3 0.1,-0.3 0.4,-0.7 0.3,-1 -0.3,-0.8 0,-1.3 0.5,-2 -0.8,0.3 -1.5,0.5 -2.1,0.7 z m 5.6,-18.6 c 0.3,0.8 0.5,1.6 0.8,2.4 0.5,-1 0.1,-2.1 -0.8,-2.4 z m 0.7,9.4 c 0,0 0.1,0 0,0 -0.3,-0.4 -0.7,-0.7 -1.1,-1 -0.5,-0.4 -0.6,-0.4 -1,0.2 0.7,0.3 1.4,0.5 2.1,0.8 z"
       inkscape:connector-curvature="0"
       style="fill:#800000" /><path
       id="path4"
       d="M 72.6,31.5 C 72.3,31.4 72,31.3 71.8,31.1 71,30.3 70.2,30.4 69.3,31 c -0.2,0.1 -0.4,0.2 -0.5,0.3 1.8,0.5 2.3,1.8 2.1,3.5 1.5,0.1 2.9,0.3 4.1,1.2 0,0.1 0,0.1 0,0.2 -0.5,0 -1.1,0 -1.6,0 0,0.1 -0.1,0.1 -0.1,0.2 0.6,0.7 1.1,1.4 1.8,2.2 -0.3,-0.1 -0.6,-0.1 -0.8,-0.2 -0.5,-0.4 -1.1,-0.9 -1.5,-1.4 -0.7,-0.9 -0.7,-0.9 -2,-1 0.2,0.7 0.2,1.4 0.5,1.9 0.3,0.5 0.8,0.9 1.2,1.3 -0.1,0.1 -0.1,0.2 -0.2,0.2 -0.6,-0.3 -1.2,-0.6 -2,-1 0.1,0.8 0.1,1.5 0.4,2.1 0.2,0.6 0.3,1.1 -0.2,1.7 -0.7,-0.9 -1,-2.2 -2.3,-2.8 0,1.4 0.9,2.3 1.6,3.2 0,0 -0.1,0.1 -0.1,0.1 -0.2,-0.1 -0.4,-0.1 -0.5,-0.2 -1.1,-1 -1.8,-2.2 -2.2,-3.6 -0.2,-0.9 -0.8,-1.8 -1.3,-2.7 -0.3,-0.6 -0.7,-1.1 -0.8,-1.7 -0.1,-1 0,-1.9 0.2,-2.9 0.2,-1.2 -0.3,-2.3 -1.3,-2.9 -0.9,-0.5 -1.7,-1 -2.5,-1.5 -0.9,-0.5 -1,-0.5 -1.7,0 0.7,0.5 1.3,1.1 2,1.7 0.3,0.3 0.5,0.3 1,-0.1 0.4,0.4 0.7,0.7 1.1,1.1 0.3,0.2 0.5,0.5 0.7,0.7 0.3,0.3 0.3,0.5 0,0.9 -0.5,0.7 -1.2,1.5 -1.4,2.3 -0.1,0.5 0.3,1.3 0.7,1.7 0.5,0.5 1.2,0.9 1.8,1.3 0.2,0.1 0.3,0.3 0.5,0.4 0,0 -0.1,0.1 -0.1,0.1 -0.7,-0.2 -1.4,-0.4 -2.1,-0.6 -0.1,0 -0.1,0.1 -0.2,0.1 0.3,0.4 0.5,0.9 0.8,1.3 0.2,0.3 0.5,0.5 0.7,0.7 0.7,0.6 1.3,1.3 1.5,2.3 0.1,0.5 0.6,1 1,1.5 0.5,0.8 1,1.5 1.4,2.3 0.2,0.3 0.1,0.9 -0.1,1.2 -0.4,0.6 -0.8,1.2 -0.6,2.1 -0.1,0 -0.2,0 -0.3,0 -0.1,-0.4 -0.2,-0.8 -0.3,-1.2 0,-0.4 -0.1,-0.8 0.1,-1.2 0.4,-1.2 -0.2,-2 -1.1,-2.9 -0.2,1.2 -0.4,2.4 -0.6,3.5 0,0.3 0.3,0.6 0.5,0.8 0.6,0.8 0.9,1.7 1,2.7 -0.7,-1 -1.4,-2 -2.1,-3 -0.7,0.7 -0.6,1 0.1,2.1 -0.7,0.2 -1.1,-0.1 -1.1,-0.8 0,-1 0.3,-1.9 0.8,-2.8 0.5,-0.8 0.2,-1.2 -0.3,-1.8 -0.4,-0.5 -0.5,-1.3 -0.8,-2 -0.1,-0.4 -0.2,-0.7 -0.5,-1.1 0,0.1 -0.1,0.3 -0.1,0.4 0,1 -0.1,2 -0.1,3.1 0,0.3 0.1,0.6 0.3,0.8 0.5,0.7 0.5,1.3 0,2 0,0 -0.1,0 -0.1,0 -0.3,-1.2 -1.2,-2.1 -1.9,-3 -0.3,-0.4 -0.5,-1 -0.8,-1.5 -0.1,-0.2 -0.2,-0.3 -0.3,-0.5 -0.4,-0.7 -0.7,-1.4 -1.1,-2 -0.1,-0.2 -0.2,-0.5 -0.4,-0.6 -0.8,-0.5 -1.2,-1.2 -1.6,-2 -0.3,-0.7 -0.7,-1 -1.5,-0.9 -0.5,0 -0.9,0 -1.4,0 0,0.4 -0.2,0.7 0.5,0.9 0.9,0.3 1.6,0.8 1.8,1.8 0.1,0.4 0.2,0.7 0.3,1.1 -0.8,-0.4 -0.8,-1.2 -1.2,-1.7 0,0.8 -0.1,1.6 -0.1,2.4 0,0.6 0.3,1 0.8,1.3 0.3,0.2 0.7,0.4 0.9,0.6 0.4,0.4 0.6,0.9 0.4,1.5 0,0.1 -0.1,0.3 0,0.3 0.4,0.8 0.3,1.5 0.2,2.3 0,0.2 0.1,0.5 0.3,0.6 0.3,0.3 0.7,0.4 0.9,0.7 0.5,0.8 1.3,0.9 2.3,0.8 -0.2,-0.3 -0.4,-0.7 -0.5,-1 -0.2,-0.2 -0.3,-0.5 -0.5,-0.7 -0.8,-1.3 -0.4,-2.6 -0.1,-3.9 0,-0.1 0.1,-0.3 0.1,-0.4 0.1,0.1 0.3,0.1 0.4,0.2 0,0.7 0,1.4 -0.2,2 -0.1,0.5 -0.2,0.9 0.1,1.3 0.3,0.4 0.6,0.7 0.8,1.1 0.3,0.5 0.7,1 1,1.6 0.3,0.6 1.2,1.1 1.8,0.8 1.1,-0.4 2,0.1 2.9,0.7 0,0.1 0,0.1 0,0.2 -0.2,0 -0.5,0 -0.7,-0.1 -0.7,-0.2 -1.3,-0.4 -2,0 -0.3,0.2 -0.4,0.4 -0.2,0.7 0.8,1.1 1.6,2.1 3.1,2.3 0.1,0 0.1,0.1 0.2,0.1 -1.2,0.3 -2.3,-0.1 -3.2,-1 C 64.2,52.2 63.7,51.5 63.1,51 63,50.9 62.7,50.9 62.5,50.9 62,50 61.2,50.7 60.5,50.4 c 0.1,1.2 0.2,2.3 0.4,3.4 0.1,0.6 0.4,1.2 1.2,1.4 1.6,0.3 2.5,1.3 2.7,2.9 0.1,1 0.7,1.7 1.7,2.1 -0.3,0.5 -0.7,0.5 -1,0.3 -0.9,-0.5 -1.4,-1.3 -1.7,-2.3 -0.1,-0.4 -0.2,-0.8 -0.4,-1.1 -0.2,-0.5 -0.5,-0.7 -1.1,-0.8 -0.5,-0.1 -1,-0.5 -1.5,-0.7 -0.2,-0.1 -0.3,-0.3 -0.4,-0.5 -0.3,1 -0.7,1.8 -0.3,2.7 0.1,0.3 0.3,0.6 0.5,0.9 0.5,0.8 1,1.7 1.5,2.5 0,0.1 0,0.3 0,0.3 -0.1,0 -0.3,0 -0.3,0 -0.1,-0.1 -0.3,-0.3 -0.4,-0.4 -0.5,-0.8 -1,-1.5 -1.5,-2.3 -0.6,-0.8 -0.7,-1.7 -0.4,-2.7 0.3,-0.9 0.4,-1.8 0.6,-2.8 0.1,-0.4 -0.1,-0.7 -0.5,-0.9 -0.4,-0.2 -0.8,-0.4 -1.2,-0.6 0,0.6 0,1.1 0,1.7 -0.6,-0.8 -1.2,-3 -1.4,-4.8 -0.2,-0.1 -0.5,-0.2 -0.7,-0.3 -0.1,0 -0.3,0 -0.4,0 -0.1,0.1 -0.2,0.4 -0.2,0.5 0.2,0.7 0.5,1.5 0.7,2.2 0.1,0.3 0.4,0.5 0.6,0.8 0.2,0.3 0.5,0.5 0.7,0.8 0.1,0.2 0,0.5 0.1,0.7 -0.6,-0.5 -1.3,-0.9 -1.7,-1.4 -0.5,-0.7 -0.7,-1.5 -1,-2.2 -0.5,0.4 -0.5,0.6 0,1.2 0.3,0.4 0.6,0.8 0.9,1.2 0.5,0.7 0.3,1.3 0,2 -0.1,0 -0.1,-0.1 -0.1,-0.1 -0.1,-1 -0.7,-1.7 -1.4,-2.3 -1,-1 -0.7,-2.2 -0.3,-3.3 0.3,-0.9 0.4,-0.9 -0.4,-1.5 -1,-0.8 -1.2,-2 -1.3,-3.1 -0.1,-1.3 0,-2.7 0,-4 0,-0.2 0.1,-0.4 0.1,-0.6 0.1,0 0.1,0 0.2,-0.1 0.1,0.2 0.2,0.4 0.3,0.6 0,0.2 0,0.3 0,0.5 0,0.6 -0.2,1.3 0.8,1.4 -0.3,0.2 -0.5,0.3 -0.6,0.4 0,0.4 0,0.8 0,1.1 -0.1,1.4 0.4,2.3 1.7,2.8 0.7,0.3 1.4,0.4 2,0.6 0.1,0 0.2,0 0.4,0.1 0.3,-1.6 0.1,-1.9 -1.3,-2.5 -0.9,-0.3 -1.1,-1 -1.3,-1.9 -0.2,-1.2 0.1,-2.4 0.4,-3.5 0.1,-0.5 0.1,-1 -0.2,-1.5 -0.1,0.1 -0.2,0.2 -0.2,0.3 -0.1,-0.1 -0.1,-0.1 -0.1,-0.1 -0.3,-0.8 -0.6,-1.6 -0.9,-2.4 -0.3,-1.1 -1.1,-1.9 -2,-2.6 -0.2,-0.2 -0.5,-0.4 -0.6,-0.7 -0.6,-1 -1.1,-2.1 -1.6,-3.1 -0.3,-0.5 -0.6,-1.1 -0.7,-1.6 -0.1,-0.4 0,-0.9 0,-1.4 0,-0.3 0.1,-0.5 -0.3,-0.7 -0.4,-0.2 -0.5,-0.6 -0.4,-1 0.4,-1.3 0.7,-2.6 1,-4 0.6,-2.7 1,-5.4 1,-8.2 0,-0.8 0.1,-1.5 0.2,-2.2 0,-0.3 0.2,-0.5 0.4,-0.8 0.1,0 0.1,0 0.2,0 0.1,0.2 0.2,0.4 0.2,0.6 -0.1,2.8 -0.1,5.5 -0.3,8.3 -0.1,1.9 -0.5,3.9 -0.6,5.8 0,1.6 0.2,3.2 0.4,4.7 0.1,0.6 0.5,0.8 1.1,0.8 1.3,0 2.5,-0.5 3.6,-1.3 1,-0.8 2.1,-1.6 3.1,-2.4 1,-0.8 2.2,-0.6 3.2,-0.1 1.1,0.6 2.1,1.2 3.2,1.8 0.7,0.4 1.5,0.7 2.2,1.1 0.2,0.1 0.4,0.3 0.6,0.5 0,0.1 0,0.1 0,0.2 -0.6,0.1 -1.1,0.2 -1.8,0.3 0,0.1 0.1,0.3 0.1,0.6 0,0.6 0,1.2 -0.1,1.8 -0.1,0.6 0,0.7 0.6,0.7 0.3,0 0.6,0 0.9,-0.1 0.9,0 1.6,0.3 2.2,1.1 0.1,-0.7 0,-1.2 -0.5,-1.6 -0.3,-0.3 -0.8,-0.5 -1.3,-0.2 -0.4,0.2 -0.9,-0.1 -0.9,-0.5 0,-0.1 0.2,-0.3 0.3,-0.4 0.3,-0.2 0.7,-0.3 1.1,-0.5 0.8,-0.3 1.5,-0.8 2.3,-1 0.7,-0.2 1.3,0.2 1.6,0.8 0.1,0.3 0.4,0.5 0.5,0.7 -0.1,0.9 -0.1,1 -0.1,1 z m -9.9,-1.3 c 0.1,0.1 0.2,0.2 0.2,0.4 0,0.1 0.1,0.3 0,0.5 0,0.1 -0.3,0.1 -0.4,0.1 -0.9,-0.3 -1.8,-0.7 -2.7,-1 -0.2,-0.1 -0.5,-0.1 -0.6,0 -0.9,0.5 -1.7,1 -2.5,1.7 -0.9,0.7 -1.7,1.5 -2.6,2.3 0.1,0.2 0.3,0.4 0.3,0.6 0.1,0.6 0.5,0.7 1,0.6 0.6,0 1.2,0 1.8,0.1 1.1,0.2 1.6,0.8 1.8,1.9 0.1,0.3 0.2,0.6 0.3,0.9 0.3,-1.9 0.5,-2.4 1.3,-3.3 0.3,-0.4 0.6,-0.9 0.9,-1.3 0.4,-0.6 0.8,-1.3 1.3,-1.9 0.6,-0.6 0.5,-1.2 -0.1,-1.6 z m 0.5,14.1 c 0,-1.6 0,-3.1 0,-4.6 0,-0.2 -0.2,-0.4 -0.3,-0.5 -0.8,-0.5 -1.7,-1 -2.1,-2 -0.2,0.6 -0.6,1.2 -0.5,1.8 0.2,0.9 0.4,1.9 1.3,2.7 0.3,0.3 0.6,0.8 0.6,1.3 0.1,0.6 0.5,0.9 1,1.3 z M 70,37.1 c -0.1,-0.5 -0.1,-1.3 -0.4,-1.8 -0.3,-0.6 -1,-1.1 -1.6,-1.4 -0.6,-0.2 -1.3,0 -1.9,0 0.4,0.5 0.7,1 1,1.4 0.1,0.1 0.2,0.3 0.3,0.3 1,0.5 1.8,1 2.6,1.5 z M 53.4,33.3 c 0.7,-0.7 1.4,-1.3 2.1,-1.9 -0.8,0.3 -1.4,1.2 -2.4,0.8 0.7,-0.6 1.4,-1.3 2.1,-1.9 0,0 -0.1,-0.1 -0.1,-0.1 -1.2,0.3 -2.5,0.7 -3.7,1 0.2,0.9 1.2,1.3 2,2.1 z m 8.4,2.8 c -0.4,0.8 -0.2,1.1 0.4,1.6 0.8,0.5 1.5,1.2 2.1,1.8 0.2,0.2 0.3,0.7 0.4,1 0.2,0.8 0.4,1.7 0.6,2.5 0,0.1 0.1,0.2 0.2,0.3 0.1,-0.5 0.1,-0.9 0.1,-1.3 0,-1 -0.2,-1.9 -1,-2.7 -0.5,-0.5 -1,-1.1 -1.2,-1.8 -0.3,-0.8 -0.7,-1.2 -1.5,-1.4 0,0 -0.1,0 -0.1,0 z M 58,49.5 c 0.1,0.5 0,1.1 0.3,1.4 0.6,0.6 1.4,1.1 2.2,1.7 -0.1,-1.3 -1.1,-2.5 -2.5,-3.1 z m 11.5,-10 c -0.1,-1.7 -0.7,-2.6 -1.9,-2.6 0.5,1 0.5,2.3 1.9,2.6 z m -11.7,4.8 c -0.1,-1.2 -1.4,-1.1 -1.9,-2 0.1,1.3 1.4,1.3 1.9,2 z"
       inkscape:connector-curvature="0"
       style="fill:#800000" /><path
       id="path6"
       d="m 10.9,53.9 c 0.2,0.2 0.4,0.4 0.4,0.5 -0.1,0.4 -0.2,0.8 -0.4,1.2 -0.4,0.9 -0.8,1.7 -1.2,2.5 C 9.6,58.3 9.4,58.4 9.3,58.5 9.2,58.3 9,58.1 9,57.9 9,57.6 9.1,57.2 9.2,56.9 9,56.8 8.8,56.7 8.7,56.6 8.4,56.1 8.6,53.8 9,53.4 9.3,53.1 9.9,53 10.4,53.3 c 0.8,-1.5 2.1,-2.6 3.6,-3.5 0.3,-0.2 0.7,-0.3 1,-0.5 1.5,-0.5 2.3,-1.7 2.9,-3.1 0.9,-1.9 1.9,-3.8 2.8,-5.7 0.5,-1 1.1,-2 1.7,-3 0.8,-1.3 2.1,-2 3.3,-2.8 2.2,-1.4 4.6,-2.3 7,-3.3 1.7,-0.7 3.1,-1.7 4.4,-2.9 0.6,-0.6 1,-1.6 1.3,-2.5 0.6,-2 0.9,-4 1,-6.1 0.2,-2.5 0.4,-5.1 0.6,-7.6 0,-0.4 0.2,-0.8 0.4,-1.3 0.1,0 0.2,0 0.2,0 0,0.2 0,0.4 0,0.6 0,1.6 0,3.3 0,4.9 -0.1,1.9 -0.3,3.7 -0.5,5.6 -0.2,1.3 -0.3,2.7 -0.6,4 -0.7,3 -2.6,4.9 -5.5,6 -1.6,0.6 -3.2,1.2 -4.7,2 -1.5,0.7 -3,1.5 -4.4,2.5 -0.8,0.6 -1.4,1.5 -1.9,2.4 -1.1,2 -2.1,4.2 -3.2,6.2 -0.5,1 -1.1,2.1 -1.7,3.1 -0.5,0.8 -1.2,1.3 -2,1.5 -2,0.6 -3.4,2 -4.9,3.3 -0.2,0.3 -0.3,0.6 -0.3,0.8 z m -1.4,2.3 c 0.4,-0.7 0.8,-1.3 1.1,-1.9 -0.5,0.1 -1,0.2 -1.5,0.2 0.1,0.6 0.2,1.1 0.4,1.7 z"
       inkscape:connector-curvature="0"
       style="fill:#800000" /><path
       id="path8"
       d="m 47.3,25 c 0.3,-2.7 0.6,-5.4 0.9,-8.1 -0.3,1.9 -0.7,3.7 -1.5,5.6 0.2,-4.2 0.5,-8.2 0.7,-12.4 0.1,0.1 0.3,0.2 0.4,0.4 0.2,0.8 0.4,1.6 0.4,2.3 0.1,1.1 0,2.3 0.1,3.5 0.1,-0.9 0.2,-1.8 0.2,-2.7 0.1,-0.9 0.1,-1.8 0.2,-2.8 0,-0.1 0.1,-0.3 0.2,-0.4 0.1,0.1 0.3,0.2 0.4,0.3 0.1,0.2 0.1,0.4 0.1,0.5 0.3,2 0,4 -0.4,6 -0.4,2.5 -0.9,4.9 -1.4,7.4 0,0.2 -0.1,0.3 -0.2,0.5 0,-0.1 0,-0.1 -0.1,-0.1 z"
       inkscape:connector-curvature="0"
       style="fill:#800000" /><path
       id="path10"
       d="m 50.3,49.7 c -0.1,0.7 -0.1,1.4 -0.3,2.1 -0.1,0.4 0,0.8 0.3,1 0.4,0.3 0.8,0.7 1.4,0.8 0.5,0.1 0.9,0.6 1.3,1 1,0.9 1.8,2.1 3.1,2.7 0.3,0.2 0.5,0.5 0.8,0.8 -0.1,0.1 -0.1,0.1 -0.2,0.2 -0.6,-0.4 -1.2,-0.7 -1.8,-1.1 -0.1,0.1 -0.1,0.1 -0.2,0.2 0.4,0.7 0.8,1.5 1.1,2.2 0.2,0.4 0.4,0.8 0.6,1.2 -0.1,0.1 -0.2,0.1 -0.2,0.2 -0.2,-0.2 -0.4,-0.5 -0.6,-0.7 -1,-0.9 -1.6,-2.1 -1.9,-3.4 -0.1,-0.7 -0.6,-1 -1.1,-1.3 -0.1,-0.1 -0.5,0.2 -0.5,0.3 0.1,0.6 0.2,1.2 0.4,1.8 0.6,1.4 1.3,2.7 0.6,4.3 -0.1,0.2 -0.3,0.4 -0.6,0.7 -0.1,-0.1 -0.1,-0.2 -0.1,-0.2 0.4,-1.7 -0.2,-3.3 -0.9,-4.9 -0.3,-0.6 -0.2,-1.4 -0.4,-2.1 0,-0.2 -0.2,-0.5 -0.3,-0.7 -0.7,-0.7 -1.6,-1.2 -1.6,-2.3 0,-0.3 -0.1,-0.6 0,-0.9 0.2,-0.7 0.4,-1.4 0.6,-2.1 0.3,0.1 0.4,0.1 0.5,0.2 z"
       inkscape:connector-curvature="0"
       style="fill:#800000" /><path
       id="path12"
       d="m 48.6,32.1 c 0.3,0.6 0.6,1.2 1,1.7 0.2,0.4 0.6,0.7 0.9,0.9 1.1,0.9 2.3,1.8 3.3,2.7 0.3,0.3 0.5,0.7 0.8,1 0.5,0.6 0.3,1.5 -0.3,2.1 C 54.1,40 54,39.5 53.8,39.1 53.2,37.9 52,37.3 51,36.5 c -0.4,-0.3 -0.8,-0.6 -1.2,-0.8 -0.1,-0.1 -0.2,0 -0.4,0 -0.2,0 -0.3,0 -0.4,-0.1 C 48,35 47.4,34.1 47.3,33 47.1,31.6 47,30.2 46.9,28.8 c 0,-0.4 0.1,-0.9 0.2,-1.3 0,-0.1 0.2,-0.3 0.4,-0.3 0.1,0 0.3,0.1 0.3,0.2 0.1,0.3 0.2,0.7 0.2,1 0.2,0.9 0.3,1.7 0.4,2.6 0,0.3 0.2,0.6 0.1,0.8 -0.1,0.2 -0.5,0.1 -0.8,0.1 -0.1,0.9 0.3,1.8 1.1,2.6 -0.2,-0.8 -0.4,-1.6 -0.6,-2.3 0.3,0 0.3,-0.1 0.4,-0.1 z"
       inkscape:connector-curvature="0"
       style="fill:#800000" /><path
       id="path14"
       d="m 19.7,56.4 c -0.4,-0.2 -0.7,-0.5 -1.1,-0.7 -0.4,-0.2 -1,-0.4 -0.9,-0.9 0.2,-0.7 0.8,-0.2 1.1,0 0.5,0.3 1.1,0.7 1.5,1.1 0.4,0.3 0.6,0.4 1.1,0.2 0.9,-0.4 0.9,-1.1 1.2,-1.9 0.1,-0.4 0.3,-0.8 0.5,-1.2 0.2,1.1 0,2.2 -0.7,3.2 0,0 0.1,0.1 0.1,0.1 0.5,-0.3 1,-0.6 1.6,-1 0,0.1 0.1,0.2 0.1,0.3 -0.1,0.7 -1.2,1.5 -1.8,1.3 -0.4,-0.1 -0.6,0 -0.7,0.3 -0.4,0.8 -0.8,1.6 -1.2,2.3 -0.1,0.2 -0.2,0.3 -0.4,0.5 -0.3,-0.9 0.7,-1.5 0.7,-2.4 -0.2,0.1 -0.3,0.2 -0.5,0.2 -0.9,-0.1 -1.3,0.6 -1.6,1.2 -0.3,0.6 -0.8,0.9 -1.4,1 -0.3,0.1 -0.7,0.2 -1,0.2 -0.7,-1.3 1,-3.2 3.4,-3.6 0,-0.1 0,-0.1 0,-0.2 z m -1,1.5 c -1.4,0.4 -1.7,0.7 -1.5,1.8 0.5,-0.7 1,-1.2 1.5,-1.8 z"
       inkscape:connector-curvature="0"
       style="fill:#800000" /><path
       id="path16"
       d="m 12.5,54 c 0.4,0.5 0.8,0.9 1.2,1.4 0.5,-1.5 0.8,-3 1.8,-4.2 0.2,0.3 0.4,0.6 0.7,1 0.5,-0.6 0.9,-1.2 1.3,-1.7 0.1,-0.1 0.4,-0.3 0.5,-0.2 0.2,0 0.4,0.3 0.4,0.4 0,0.1 -0.1,0.4 -0.3,0.5 -0.4,0.4 -0.8,0.7 -1.3,1.1 0.9,0.2 1.7,0.1 2.3,0.9 -0.8,0.1 -1.4,0.1 -2.1,0.2 -0.3,0.9 0,2 -0.7,2.7 -0.1,0 -0.2,0 -0.2,0 0,-0.7 -0.1,-1.4 -0.1,-2.1 0,-0.6 0.1,-1.2 -0.8,-1.7 -0.3,1 -0.6,1.9 -0.8,2.9 -0.1,0.3 -0.1,0.6 -0.1,0.9 0,0.3 -0.1,0.4 -0.5,0.3 -0.2,-0.1 -0.4,0 -0.7,0.1 -0.3,-0.8 -0.7,-1.6 -1,-2.4 C 12.3,54 12.4,54 12.5,54 Z"
       inkscape:connector-curvature="0"
       style="fill:#800000" /><path
       id="path18"
       d="m 44.5,24.2 c 0.4,-3.7 0.7,-7.5 1.1,-11.2 0,-0.3 0.2,-0.5 0.4,-0.8 0.9,4.2 0,8.1 -1.2,12 -0.2,0 -0.3,0 -0.3,0 z"
       inkscape:connector-curvature="0"
       style="fill:#800000" /><path
       id="path20"
       d="m 44.8,29.1 c 0.2,-0.6 0.3,-1.1 0.5,-1.6 0.2,-0.9 0.5,-1.7 0.8,-2.6 0.1,-0.2 0.4,-0.4 0.6,-0.6 0,0.2 0.1,0.5 0.1,0.7 -0.2,1.4 -0.5,2.9 -0.7,4.3 -0.1,0.8 0,1.6 0.6,2.3 0.1,0.1 0.1,0.5 0,0.6 -0.2,0.1 -0.4,0.1 -0.6,0 -0.1,-0.1 -0.3,-0.3 -0.3,-0.4 -0.5,-0.9 -0.7,-1.8 -1,-2.7 z"
       inkscape:connector-curvature="0"
       style="fill:#800000" /><path
       id="path22"
       d="m 42.1,44.7 c 0.3,0.1 0.4,0.1 0.5,0.2 0.8,0.5 1.6,1.1 2.4,1.6 0.6,0.4 1.1,1 1.2,1.8 0,0.7 0.1,1.3 0.1,2 -0.1,0 -0.1,0.1 -0.2,0.1 C 45.9,50.2 45.6,50 45.5,49.7 45.2,49.1 45,48.5 44.7,48 44.4,47.5 43.9,47.1 43.5,46.6 43.1,46.2 42.7,45.8 42.3,45.4 42.2,45.3 42.2,45 42.1,44.7 Z"
       inkscape:connector-curvature="0"
       style="fill:#800000" /><path
       id="path24"
       d="m 42.8,18.3 c 0,-0.1 -0.1,-0.2 -0.1,-0.3 0.2,-1.7 0.5,-3.3 0.8,-5 0,-0.2 0.2,-0.4 0.3,-0.7 0.2,0.2 0.4,0.4 0.5,0.6 0.3,1.1 0,2.1 -0.3,3.1 -0.2,0.6 -0.4,1.3 -0.7,1.9 -0.1,0.2 -0.2,0.3 -0.4,0.5 0,0 0,0 -0.1,-0.1 z"
       inkscape:connector-curvature="0"
       style="fill:#800000" /><path
       id="path26"
       d="m 47.6,51.9 c 0.1,0.2 0.3,0.4 0.4,0.6 0.3,0.7 0.6,1.4 0.9,2.1 0.5,1 0,2.6 -1,2.9 C 48,57.3 48,57.1 48,56.9 48.4,56 48.3,55.2 47.8,54.3 47.4,53.6 47.1,52.9 47.3,52 c 0.2,-0.1 0.2,-0.1 0.3,-0.1 z"
       inkscape:connector-curvature="0"
       style="fill:#800000" /><path
       id="path28"
       d="m 44.5,56.5 c 0,-0.1 0.1,-0.2 0.1,-0.2 1.2,-1 1.3,-2.2 0.7,-3.6 -0.1,-0.2 -0.1,-0.3 -0.1,-0.5 0,-0.2 0,-0.4 0,-0.7 0.3,0.1 0.6,0.1 0.8,0.3 0.6,0.7 0.8,1.6 0.6,2.5 -0.2,0.8 -0.5,1.5 -1.2,2 -0.2,0.1 -0.4,0.2 -0.7,0.3 -0.1,0 -0.2,0 -0.2,-0.1 z"
       inkscape:connector-curvature="0"
       style="fill:#800000" /><path
       id="path30"
       d="m 42.1,27.9 c 0.2,-0.7 0.3,-1.4 0.5,-2 0,-0.1 0.3,-0.2 0.5,-0.3 0.1,0.2 0.2,0.4 0.2,0.5 -0.1,0.9 -0.2,1.8 -0.3,2.7 0,0.2 -0.2,0.3 -0.4,0.5 -0.1,-0.2 -0.3,-0.3 -0.4,-0.5 -0.1,-0.3 0,-0.6 -0.1,-0.9 0.1,0 0.1,0 0,0 z"
       inkscape:connector-curvature="0"
       style="fill:#800000" /><path
       id="path32"
       d="m 43.6,60.5 c -1.4,0 -2.8,-1.4 -2.3,-2.4 0.7,0.8 1.9,1.1 2.3,2.4 z"
       inkscape:connector-curvature="0"
       style="fill:#800000" /><path
       id="path34"
       d="m 43.1,20.4 c -0.1,0.4 -0.2,0.7 -0.3,1.1 -0.2,0.8 -0.5,1.6 -0.7,2.4 0,0.2 -0.2,0.3 -0.3,0.4 -0.1,-0.2 -0.2,-0.3 -0.2,-0.5 0.3,-1 0.6,-2.1 0.9,-3.1 0.1,-0.2 0.2,-0.4 0.2,-0.6 0.2,0.2 0.3,0.2 0.4,0.3 z"
       inkscape:connector-curvature="0"
       style="fill:#800000" /><path
       id="path36"
       d="m 19.6,53.6 c 0.7,-0.4 1.4,-0.8 2.2,-1.2 -0.1,0.7 -0.4,1 -0.8,1.2 -0.4,0.3 -0.9,0.5 -1.4,0 z"
       inkscape:connector-curvature="0"
       style="fill:#800000" /><path
       id="path38"
       d="m 35.5,63.3 c 0.5,-0.5 1.4,-0.4 2.1,0.1 -0.4,0.5 -1.5,0.5 -2.1,-0.1 z"
       inkscape:connector-curvature="0"
       style="fill:#800000" /><path
       id="path40"
       d="M 7.4,56 C 6.9,56.9 5.8,57.4 4.9,57.1 5.8,56.7 6.6,56.4 7.4,56 Z"
       inkscape:connector-curvature="0"
       style="fill:#800000" /><path
       id="path42"
       d="m 50.8,41.6 c 0,1.5 -0.7,2.6 -1.4,3.6 -0.1,0.2 -0.4,0.2 -0.7,0.3 -0.1,0 -0.4,0 -0.4,-0.1 -0.1,-0.1 0,-0.4 0.1,-0.5 0.6,-1.1 1.2,-2.1 1.9,-3.2 0.1,-0.2 0.3,-0.2 0.5,-0.3 0,0.1 0,0.2 0,0.2 z"
       inkscape:connector-curvature="0"
       style="fill:#800000" /><path
       id="path44"
       d="m 47.5,42.1 c 0.6,0.3 0.7,0.6 0.4,1 -0.1,0.2 -0.2,0.5 -0.3,0.7 -0.1,0.1 -0.2,0.2 -0.3,0.4 -0.1,-0.1 -0.3,-0.3 -0.3,-0.4 0.2,-0.6 0.4,-1.1 0.5,-1.7 z"
       inkscape:connector-curvature="0"
       style="fill:#800000" /></g></svg>