<?xml version="1.0" encoding="UTF-8" standalone="no"?>
<svg
   xmlns:dc="http://purl.org/dc/elements/1.1/"
   xmlns:cc="http://creativecommons.org/ns#"
   xmlns:rdf="http://www.w3.org/1999/02/22-rdf-syntax-ns#"
   xmlns:svg="http://www.w3.org/2000/svg"
   xmlns="http://www.w3.org/2000/svg"
   xmlns:sodipodi="http://sodipodi.sourceforge.net/DTD/sodipodi-0.dtd"
   xmlns:inkscape="http://www.inkscape.org/namespaces/inkscape"
   version="1.1"
   x="0px"
   y="0px"
   viewBox="0 0 100 100"
   enable-background="new 0 0 100 100"
   xml:space="preserve"
   id="svg24"
   sodipodi:docname="global.svg"
   inkscape:version="0.92.3 (2405546, 2018-03-11)"><metadata
     id="metadata30"><rdf:RDF><cc:Work
         rdf:about=""><dc:format>image/svg+xml</dc:format><dc:type
           rdf:resource="http://purl.org/dc/dcmitype/StillImage" /><dc:title /></cc:Work></rdf:RDF></metadata><defs
     id="defs28" /><sodipodi:namedview
     pagecolor="#ffffff"
     bordercolor="#666666"
     borderopacity="1"
     objecttolerance="10"
     gridtolerance="10"
     guidetolerance="10"
     inkscape:pageopacity="0"
     inkscape:pageshadow="2"
     inkscape:window-width="1600"
     inkscape:window-height="836"
     id="namedview26"
     showgrid="false"
     inkscape:zoom="2.36"
     inkscape:cx="-47.76425"
     inkscape:cy="30.632842"
     inkscape:window-x="0"
     inkscape:window-y="27"
     inkscape:window-maximized="1"
     inkscape:current-layer="svg24" /><path
     d="m 71.869379,64.643827 c -0.08148,-0.179405 -0.22171,-0.184889 -0.314155,-0.01175 l -0.492776,0.918177 c -0.0948,0.173138 -0.268715,0.437936 -0.39093,0.592272 l -0.686283,0.868037 c -0.122998,0.153552 -0.343141,0.381529 -0.492775,0.508445 -0.347059,0.293785 -0.91426,0.777943 -1.035692,0.898591 -0.131615,0.130832 -0.550749,0.422267 -0.741122,0.733288 -0.102629,0.168437 -0.06659,0.494343 -0.01724,0.685499 0.05249,0.208392 0.119081,0.437936 0.176271,0.618124 0.05641,0.188807 0.0031,0.461439 -0.126132,0.609507 -0.243646,0.283601 -0.603239,0.705868 -0.716836,0.860987 -0.178622,0.237378 -0.474757,0.711352 -0.474757,0.890757 0,0.09636 0,0.366644 0,0.594621 0,0.196641 0.159035,0.35646 0.354109,0.35646 h 0.358026 c 0.196641,0 0.473974,-0.108113 0.619691,-0.240512 l 0.449688,-0.412867 0.803013,-0.89154 0.621258,-0.687849 c 0.133183,-0.146501 0.266365,-0.421484 0.300836,-0.614991 l 0.115164,-0.66513 c 0.03369,-0.192723 0.126132,-0.495126 0.207608,-0.674531 l 0.242863,-0.538215 c 0.08148,-0.180188 0.253047,-0.444203 0.385446,-0.589921 l 0.115164,-0.126131 c 0.130832,-0.145718 0.304753,-0.408166 0.387797,-0.587571 l 0.208391,-0.448121 0.343142,-0.858636 c 0.07207,-0.182539 0.132399,-0.490426 0.132399,-0.686283 0,-0.197423 -0.06581,-0.503744 -0.144934,-0.683148 z"
     id="path2"
     style="fill:#aaccff;stroke-width:0.78342748"
     inkscape:connector-curvature="0" /><path
     d="m 50.180188,40.67878 c 0.07051,0 0.167654,-0.07834 0.217793,-0.175488 0.04936,-0.09636 0.05171,-0.282034 0.0071,-0.415217 l -0.01488,-0.03839 c -0.04622,-0.132399 -0.152768,-0.16922 -0.236595,-0.08148 -0.08539,0.08774 -0.143367,0.271849 -0.128482,0.412083 l 0.0031,0.04387 c 0.0141,0.1418 0.08226,0.254614 0.151985,0.254614 z"
     id="path4"
     style="fill:#aaccff;stroke-width:0.78342748"
     inkscape:connector-curvature="0" /><path
     d="m 44.610802,32.216979 c -0.08226,0.07286 -0.163736,0.147285 -0.177838,0.167654 -0.0329,0.0423 -0.381529,0.148068 -0.415216,0.180188 -0.03134,0.03212 -0.253047,0.370561 -0.253047,0.444987 0,0.03055 0,0.07443 0,0.116731 0,0.06502 -0.0948,0.155902 -0.206042,0.214659 -0.09244,0.04936 -0.180188,0.104196 -0.176271,0.134749 0.0055,0.03369 0.02899,0.202125 0.04936,0.352543 0.01959,0.138666 0.132399,0.219359 0.253047,0.177838 l 0.217009,-0.07443 c 0,0 0.0995,-0.04309 0.222494,-0.09479 0.124565,-0.05327 0.299269,-0.08618 0.392497,-0.07443 0.09401,0.01175 0.217793,-0.07521 0.27655,-0.195857 l 0.105763,-0.21701 c 0,0 0.03369,-0.08618 0.07364,-0.191156 0.04074,-0.105763 0.145717,-0.243646 0.234245,-0.307103 0.08774,-0.06503 0.147284,-0.212309 0.131615,-0.329823 -0.0141,-0.116731 -0.129265,-0.261665 -0.255397,-0.324339 l -0.06267,-0.03134 c -0.125349,-0.05954 -0.311021,-0.03839 -0.409733,0.05092 z"
     id="path6"
     style="fill:#aaccff;stroke-width:0.78342748"
     inkscape:connector-curvature="0" /><path
     d="m 45.630825,32.003104 c 0.01097,0.09636 -0.01097,0.44577 0.05249,0.509227 0.06424,0.06346 0.456738,0.223277 0.456738,0.286735 0,0.06346 -0.266366,0.349409 -0.266366,0.380746 0,0.0329 -0.274983,-0.1371 -0.33844,0.01097 -0.06502,0.148851 -0.05327,0.371344 0.03134,0.424617 0.08383,0.05327 -0.499044,0.296919 -0.510011,0.349409 -0.0047,0.02899 0.164519,0.06032 0.321988,0.08383 0.138667,0.02037 0.177838,0.101845 0.08696,0.187239 l -0.16452,0.152768 -0.191156,0.213093 c -0.09401,0.104979 -0.05641,0.177838 0.08304,0.161386 l 0.595405,-0.06581 0.827299,-0.05327 0.479458,-0.05484 c 0.13945,-0.01645 0.27655,-0.136317 0.305537,-0.268716 0.02899,-0.130832 0.08383,-0.294569 0.122998,-0.365077 0.03682,-0.06972 0.0094,-0.225627 -0.06189,-0.345492 L 47.361416,33.44226 c -0.07207,-0.120648 -0.16687,-0.325906 -0.212309,-0.459089 l -0.05954,-0.175487 c -0.04544,-0.133183 -0.177838,-0.304754 -0.294569,-0.383096 l -0.08461,-0.05641 c -0.116731,-0.07834 -0.230328,-0.250697 -0.253831,-0.385447 -0.0235,-0.134749 0.01175,-0.319638 0.07913,-0.412866 0.06737,-0.09323 0.162169,-0.243646 0.212308,-0.334523 0.05092,-0.09166 -0.01175,-0.216226 -0.136316,-0.279684 l -0.06581,-0.03447 c -0.125348,-0.06346 -0.278117,-0.178621 -0.343141,-0.259314 -0.06503,-0.07834 -0.209175,-0.07521 -0.323556,0.0063 l -0.234244,0.168437 c -0.113597,0.08226 -0.213876,0.262448 -0.222494,0.403465 l -7.83e-4,0.02194 c -0.0086,0.13945 0.03995,0.354109 0.101845,0.479458 0.05249,0.105763 0.101846,0.217009 0.10733,0.261665 z"
     id="path8"
     style="fill:#aaccff;stroke-width:0.78342748"
     inkscape:connector-curvature="0" /><path
     d="m 43.292294,28.010757 h 0.174704 c 0.141017,0 0.360377,-0.04309 0.489642,-0.0948 L 44.277062,27.78748 44.7338,27.553235 c 0.125349,-0.06346 0.169221,-0.205258 0.09871,-0.314937 -0.06894,-0.10968 -0.227977,-0.249914 -0.354109,-0.312588 l -0.05327,-0.02664 C 44.298999,26.83561 44.08434,26.80192 43.945673,26.82308 l -0.244429,0.03604 c -0.13945,0.02037 -0.35646,-0.0086 -0.484942,-0.06502 l -0.0423,-0.0188 c -0.130049,-0.05562 -0.286734,-0.04936 -0.352542,0.01723 -0.06581,0.06659 -0.119865,0.183322 -0.119865,0.263232 v 0.143367 c 0,0 0,0.105763 0,0.238162 0,0.131616 0.07521,0.312588 0.167654,0.405816 0.09323,0.09244 0.282817,0.167653 0.423051,0.167653 z"
     id="path10"
     style="fill:#aaccff;stroke-width:0.78342748"
     inkscape:connector-curvature="0" /><path
     d="m 50.410516,23.052444 c 0.130832,0.05406 0.284384,0.147285 0.343141,0.210742 0.05797,0.06502 0.163737,0.05092 0.237379,-0.03212 l 0.132399,-0.148068 c 0,0 0.04309,-0.05092 0.09636,-0.113597 0.05249,-0.06189 0.183322,-0.06189 0.290651,0 0.108897,0.06267 0.225627,0.02664 0.260882,-0.08226 0.03525,-0.108896 -0.01097,-0.241295 -0.101063,-0.296135 -0.09088,-0.05562 -0.11438,-0.135533 -0.05327,-0.179405 0.06189,-0.04309 0.0141,-0.136317 -0.108113,-0.208392 l -0.04936,-0.02899 c -0.121431,-0.07208 -0.304753,-0.05876 -0.410516,0.02899 -0.104979,0.08853 -0.303186,0.13945 -0.44342,0.132399 -0.17392,-0.0078 -0.376045,0.0047 -0.394064,0.111247 -0.03134,0.19194 -0.11673,0.44577 -0.08383,0.477891 0.01567,0.01645 0.153551,0.07521 0.282817,0.127698 z"
     id="path12"
     style="fill:#aaccff;stroke-width:0.78342748"
     inkscape:connector-curvature="0" /><path
     d="m 53.371089,21.969748 c 0.0995,0.04544 0.293001,0.04466 0.428534,0.0078 l 0.177055,-0.04779 c 0.134749,-0.03682 0.351759,-0.10733 0.482591,-0.156686 l 0.245213,-0.09401 c 0.132399,-0.05014 0.13475,-0.140233 0.0078,-0.198991 l -0.195856,-0.09166 c -0.128483,-0.06032 -0.343142,-0.08774 -0.481808,-0.06267 -0.282034,0.05327 -0.703518,0.13475 -0.703518,0.155119 0,0.0329 -0.106546,0.329039 -0.116731,0.382313 -0.0047,0.02585 0.07443,0.06972 0.156686,0.106546 z"
     id="path14"
     style="fill:#aaccff;stroke-width:0.78342748"
     inkscape:connector-curvature="0" /><path
     d="m 56.458576,23.455126 c 0.08539,0.09558 0.424618,0.402682 0.424618,0.455955 0,0.02742 0.111247,0.117514 0.218576,0.199774 0.11203,0.08539 0.318855,0.149635 0.459872,0.149635 h 0.137883 c 0.141017,0 0.297703,-0.01802 0.350193,-0.04231 0.05327,-0.02272 0,-0.101846 -0.120648,-0.177055 l -0.07678,-0.04779 c -0.119865,-0.07521 -0.304754,-0.207608 -0.4113,-0.297703 l -0.04387,-0.03525 C 57.288224,23.570292 57.162876,23.390883 57.11587,23.2577 l -0.0188,-0.05562 c -0.04779,-0.131616 -0.118298,-0.271849 -0.160603,-0.311021 -0.04074,-0.03995 -0.06502,-0.185672 -0.05406,-0.325905 l 0.01488,-0.202908 c 0.01097,-0.140234 -0.03055,-0.357243 -0.09088,-0.483375 l -0.05562,-0.113597 c -0.06032,-0.126915 -0.188806,-0.201341 -0.284384,-0.166087 -0.09636,0.03525 -0.18724,0.170788 -0.202125,0.303187 -0.01488,0.130832 -0.135533,0.286734 -0.225627,0.394847 -0.05641,0.06738 -0.09636,0.155902 -0.06581,0.256181 0.07443,0.245213 0.350192,0.435586 0.36116,0.541349 0.0086,0.105762 0.04152,0.264798 0.124565,0.360376 z"
     id="path16"
     style="fill:#aaccff;stroke-width:0.78342748"
     inkscape:connector-curvature="0" /><path
     d="m 58.76107,23.258486 0.233461,0.190373 c 0,0 0.05484,0.03839 0.121431,0.08539 0.06737,0.04701 0.211526,0.126916 0.321206,0.180189 0.109679,0.05249 0.238162,0.047 0.285167,-0.0141 0.04936,-0.05954 0.06737,-0.177838 0.04309,-0.262448 -0.02429,-0.08461 -0.108897,-0.193507 -0.188023,-0.242079 l -0.143367,-0.08618 -0.350192,-0.24913 c 0,0 -0.07756,-0.06502 -0.172354,-0.143368 -0.09479,-0.07991 -0.25148,-0.123781 -0.348625,-0.09401 -0.07678,0.02507 -0.152769,0.05249 -0.167654,0.07129 -0.03134,0.04309 0.05719,0.223277 0.06346,0.271849 0.0055,0.04857 0.302403,0.292219 0.302403,0.292219 z"
     id="path18"
     style="fill:#aaccff;stroke-width:0.78342748"
     inkscape:connector-curvature="0" /><path
     d="m 19.931269,43.896316 c -0.02194,-0.138666 -0.02194,-0.347058 0.0016,-0.463789 0.02272,-0.11673 -0.01018,-0.312587 -0.07443,-0.437936 L 19.752648,42.789333 C 19.687623,42.663985 19.534072,42.51435 19.406373,42.45246 l -0.113597,-0.05484 c -0.126915,-0.06111 -0.259315,-0.220144 -0.295352,-0.355676 l -0.07913,-0.293786 C 18.881476,41.611842 18.77023,41.581288 18.669168,41.68 l -0.03839,0.0376 c -0.101062,0.09793 -0.182539,0.291435 -0.182539,0.431668 0,0.198991 0,0.448904 0,0.499043 0,0.05484 0.122215,0.265582 0.212309,0.44342 0.06424,0.126132 0.123781,0.345492 0.179405,0.475541 0.03447,0.08148 0.07678,0.172354 0.113597,0.252263 0.06032,0.126916 0.172354,0.325906 0.247563,0.444204 l 0.278117,0.439503 c 0.07521,0.118297 0.124565,0.329039 0.110463,0.467706 l -0.07991,0.765409 -0.09479,0.702734 c -0.01724,0.13945 0.02664,0.155902 0.101062,0.03525 l 0.113597,-0.183322 c 0.07364,-0.119081 0.165303,-0.325122 0.205258,-0.459872 l 0.154335,-0.53038 c 0.03996,-0.13475 0.07208,-0.358026 0.07208,-0.499043 v -0.06267 c 0,-0.140233 -0.01958,-0.367427 -0.04152,-0.506094 z"
     id="path20"
     style="fill:#aaccff;stroke-width:0.78342748"
     inkscape:connector-curvature="0" /><path
     d="M 74.928663,25.071337 C 68.270313,18.412987 59.417582,14.745763 50,14.745763 c -9.416015,0 -18.269529,3.667224 -24.927879,10.325574 C 18.41377,31.730471 14.745763,40.583202 14.745763,50 c 0,9.417582 3.668007,18.270313 10.326358,24.928663 6.65835,6.65835 15.511864,10.325574 24.927879,10.325574 9.417582,0 18.270313,-3.667224 24.928663,-10.325574 C 81.587013,68.270313 85.254237,59.417582 85.254237,50 c 0,-9.416798 -3.667224,-18.269529 -10.325574,-24.928663 z M 50,82.680678 c -9.541363,0 -18.140264,-4.110644 -24.120949,-10.654614 -0.0948,-0.103412 -0.191156,-0.300836 -0.214659,-0.439503 l -0.08931,-0.505311 c -0.02272,-0.13945 -0.118298,-0.33609 -0.213876,-0.439502 -0.128482,-0.13945 -0.302403,-0.325906 -0.439503,-0.457522 -0.101845,-0.09714 -0.191156,-0.265582 -0.108896,-0.379179 0.08226,-0.113597 0.19664,-0.247563 0.293002,-0.355676 0.09323,-0.105763 0.2742,-0.140234 0.401898,-0.07991 l 0.259315,0.122999 c 0.128482,0.05797 0.324339,0.0423 0.438719,-0.03917 l 0.305537,-0.216226 c 0.115164,-0.08148 0.200557,-0.260098 0.189589,-0.400331 l -0.108113,-1.443074 -0.03682,-1.653815 c -0.0023,-0.141017 0.06738,-0.342358 0.156686,-0.450471 l 0.523329,-0.626742 c 0.09009,-0.108896 0.146501,-0.309454 0.125349,-0.447337 l -0.265582,-1.829303 c -0.02037,-0.13945 -0.11203,-0.336874 -0.205258,-0.441853 L 26.04122,60.988354 25.359638,60.20571 c -0.09244,-0.10733 -0.262448,-0.254614 -0.379962,-0.33139 l -0.887623,-0.571902 c -0.117514,-0.07678 -0.293002,-0.220926 -0.38858,-0.322772 l -1.135187,-1.199428 c -0.09636,-0.102629 -0.228761,-0.285951 -0.294568,-0.409732 L 21.834215,56.547104 C 21.768407,56.423322 21.693198,56.211013 21.666561,56.07313 L 21.54513,55.432286 21.179269,53.898335 c -0.03212,-0.1371 -0.11438,-0.347058 -0.183322,-0.470056 l -0.770109,-1.3804 c -0.06737,-0.122998 -0.200557,-0.30632 -0.293002,-0.412082 -0.148068,-0.172354 -0.340007,-0.409733 -0.340007,-0.488076 0,-0.126915 -0.424618,-1.994606 -0.424618,-1.994606 l -0.564068,-1.919397 c -0.03995,-0.13475 -0.133183,-0.340791 -0.207608,-0.459089 l -0.63771,-1.010621 c -0.07364,-0.119081 -0.119865,-0.328257 -0.09871,-0.46849 0.310237,-2.141107 0.826516,-4.21719 1.533168,-6.204746 0.04701,-0.131616 0.06581,-0.155902 0.04074,-0.05249 l -0.04387,0.18724 -0.167654,0.958915 c -0.02429,0.137883 0.03212,0.335307 0.125349,0.440286 l 0.170787,0.193507 c 0.09401,0.104196 0.202908,0.08148 0.245213,-0.05327 l 0.145717,-0.469273 c 0.04231,-0.133183 0.07521,-0.35646 0.07521,-0.496693 V 39.26861 c 0,-0.140233 -0.03055,-0.364294 -0.06972,-0.499827 l -0.103412,-0.36351 c -0.03917,-0.134749 -0.02899,-0.350975 0.02272,-0.481808 0.464573,-1.16339 0.994953,-2.295442 1.584874,-3.389107 0.06581,-0.124565 0.231111,-0.234245 0.366644,-0.248347 0.136317,-0.01332 0.343141,-0.08226 0.463006,-0.156685 l 0.265582,-0.16217 c 0.120648,-0.07443 0.296135,-0.216226 0.392497,-0.318071 0.22171,-0.235029 0.572685,-0.614991 0.572685,-0.658079 0,-0.06424 0.604023,-0.366644 0.604023,-0.461439 0,-0.06737 0.49591,-0.358027 0.796746,-0.528814 0.122998,-0.06894 0.335307,-0.123781 0.476324,-0.123781 h 0.206041 c 0.141017,0 0.320422,-0.09401 0.399548,-0.209959 0.106546,-0.157469 0.235028,-0.355676 0.253831,-0.410516 0.01958,-0.05797 0.284384,-0.156685 0.489642,-0.224844 0.133183,-0.04544 0.256964,0.03526 0.274983,0.174705 l 0.03055,0.227194 c 0.01723,0.140233 0.145717,0.241295 0.284384,0.224843 0.391713,-0.04465 1.099932,-0.128482 1.099932,-0.162952 0,-0.0235 -0.03525,-0.123782 -0.07364,-0.224061 -0.04622,-0.122998 -0.09793,-0.334523 -0.114381,-0.47319 l -0.02194,-0.19429 c -0.01567,-0.140233 0.08148,-0.285951 0.215443,-0.325906 l 0.101062,-0.02977 c 0.133966,-0.04074 0.323556,-0.155902 0.419134,-0.257748 l 0.270282,-0.2836 c 0.09636,-0.102629 0.07286,-0.235812 -0.05249,-0.297703 l -0.05327,-0.02742 c -0.126132,-0.06267 -0.227978,-0.220143 -0.227978,-0.352542 0,-0.130833 0.11203,-0.220143 0.250697,-0.19664 l 0.277333,0.04465 c 0.13945,0.02272 0.350976,0.09715 0.473191,0.166087 l 0.397981,0.224843 0.353325,0.206825 c 0.121432,0.07051 0.153552,0.220143 0.07129,0.334524 l -0.148067,0.207608 c -0.08226,0.11438 -0.256965,0.242862 -0.390147,0.288301 l -0.456739,0.154335 c -0.133182,0.04544 -0.274983,0.191157 -0.316504,0.325123 l -0.13475,0.437152 c -0.04152,0.13475 0.0024,0.325906 0.09793,0.427752 l 0.399548,0.425401 c 0.09479,0.101845 0.285951,0.162953 0.423051,0.132399 0.278116,-0.06189 0.689416,-0.159819 0.689416,-0.202124 0,-0.03525 -0.02507,-0.22171 -0.04544,-0.38388 -0.01959,-0.13945 0.01645,-0.354892 0.07991,-0.478674 l 0.537431,-1.060761 0.378395,-0.743472 c 0.06346,-0.125349 0.200558,-0.303187 0.30632,-0.394848 l 0.397982,-0.348625 c 0.104979,-0.09166 0.241295,-0.269499 0.300836,-0.396414 0.182538,-0.372912 0.527246,-1.077213 0.574252,-1.123435 0.04387,-0.04466 0.489642,-0.459872 0.751307,-0.701168 0.102629,-0.09715 0.19664,-0.286734 0.209175,-0.426968 l 0.02037,-0.241296 c 0.01175,-0.141017 -0.08931,-0.227977 -0.22641,-0.19664 l -0.745823,0.172354 c -0.136317,0.03212 -0.166087,-0.02194 -0.06424,-0.119864 l 0.389363,-0.379179 0.684716,-0.72232 c 0.09714,-0.101846 0.215442,-0.290652 0.264015,-0.422268 l 0.124565,-0.334523 c 0.04936,-0.131616 -0.01567,-0.238162 -0.1418,-0.238162 -0.128483,0 -0.320422,0.06894 -0.433236,0.154335 l -0.608723,0.466139 -1.022373,0.768543 c -0.11203,0.08539 -0.30632,0.202907 -0.432452,0.263231 l -0.304753,0.145718 c -0.126132,0.06111 -0.323556,0.176271 -0.437936,0.257747 l -0.983985,0.69255 c -0.115164,0.08148 -0.321989,0.147285 -0.462222,0.147285 h -0.207609 c -0.140233,0 -0.180188,-0.08774 -0.09166,-0.195857 l 0.390147,-0.46849 c 0.09009,-0.108113 0.24913,-0.271066 0.354109,-0.364294 l 1.018456,-0.897024 0.85942,-0.795179 1.002787,-0.827299 0.658079,-0.511579 c 0.111247,-0.08618 0.312588,-0.179404 0.450471,-0.209175 l 0.265582,-0.05484 c 0.1371,-0.0282 0.361944,-0.05484 0.502961,-0.05797 l 0.143367,-0.0031 c 0.141017,-0.0031 0.203691,0.09558 0.141017,0.220927 l -0.16922,0.340791 c -0.06346,0.126131 -0.0071,0.231111 0.125348,0.235028 0.130832,0.0047 0.316505,-0.04074 0.412866,-0.103413 0.09558,-0.06111 0.209175,-0.0023 0.252264,0.130833 l 0.0031,0.01018 c 0.0423,0.133183 0.01097,0.33374 -0.07208,0.447337 l -0.03525,0.04936 c -0.08226,0.113597 -0.229544,0.285168 -0.330606,0.383096 l -0.239729,0.234245 c -0.101062,0.09793 -0.21701,0.285951 -0.260098,0.419917 l -0.148068,0.470057 c -0.04231,0.133183 0.02899,0.199774 0.159819,0.147284 l 0.352543,-0.142584 0.481024,-0.203691 c 0.130049,-0.05406 0.347842,-0.107329 0.488859,-0.119864 l 0.272633,-0.02194 c 0.13945,-0.01097 0.359593,-0.06032 0.491992,-0.10968 l 0.540565,-0.202908 c 0.132399,-0.04936 0.332173,-0.153551 0.448121,-0.234244 l 0.872738,-0.60324 0.750523,-0.44342 c 0.121432,-0.07207 0.291435,-0.218576 0.379179,-0.327472 l 0.19194,-0.239729 c 0.08618,-0.10968 0.05641,-0.247563 -0.07051,-0.309454 l -0.03525,-0.01723 c -0.126132,-0.06111 -0.172354,-0.192724 -0.102629,-0.293002 0.07129,-0.101062 0.177838,-0.285951 0.239729,-0.412083 l 0.238162,-0.487292 c 0,0 0.03839,-0.08539 0.08774,-0.191156 0.04936,-0.10498 0.175488,-0.119081 0.285951,-0.03134 l 0.192723,0.156685 c 0.10968,0.08853 0.296136,0.101846 0.416784,0.02899 l 0.33844,-0.202124 0.231111,-0.148852 c 0.119081,-0.07599 0.318855,-0.09401 0.448904,-0.03839 l 0.581304,0.24678 c 0.129265,0.05484 0.124565,0.129266 -0.01175,0.16452 l -0.399548,0.108113 c -0.134749,0.03525 -0.310237,0.153552 -0.38858,0.264015 -0.07913,0.110463 -0.05797,0.2742 0.04779,0.366644 0.105763,0.09244 0.08853,0.216226 -0.03917,0.277333 l -0.239729,0.114381 c -0.127699,0.06111 -0.318072,0.183322 -0.424618,0.272632 l -0.680015,0.568769 -0.551533,0.552316 c -0.0995,0.09871 -0.280467,0.234245 -0.403465,0.302403 l -0.556233,0.30632 -1.093665,0.733289 c -0.116731,0.07913 -0.289085,0.224843 -0.38623,0.326689 l -0.19194,0.202908 c -0.09558,0.102629 -0.239729,0.278116 -0.320422,0.39328 l -0.299269,0.428535 -0.408166,0.571119 c -0.08226,0.115163 -0.174704,0.318071 -0.206041,0.455954 l -0.04309,0.188023 c -0.03212,0.1371 0.04152,0.30397 0.16452,0.372912 l 0.350976,0.19664 c 0.122214,0.06816 0.30397,0.04387 0.405032,-0.05327 l 0.207608,-0.202125 c 0.100279,-0.09793 0.250697,-0.267932 0.336874,-0.380745 l 0.08931,-0.118298 c 0.08539,-0.112813 0.261664,-0.239729 0.394847,-0.283601 l 0.423834,-0.1418 c 0.133966,-0.04465 0.340008,-0.136316 0.463006,-0.206041 l 0.257748,-0.146501 c 0.122214,-0.06973 0.334523,-0.126132 0.47554,-0.126132 h 0.699601 c 0.141017,0 0.354893,-0.05484 0.477891,-0.122215 l 0.620474,-0.343141 c 0.122215,-0.06737 0.336091,-0.113597 0.475541,-0.101846 l 0.63771,0.05406 c 0.141017,0.01097 0.354892,-0.0329 0.479457,-0.09871 l 0.32904,-0.174704 c 0.124565,-0.06581 0.304753,-0.200558 0.402682,-0.30162 l 0.265582,-0.271849 c 0.09793,-0.100279 0.278116,-0.235029 0.403465,-0.300053 l 0.677664,-0.352542 c 0.124565,-0.06581 0.287518,-0.213876 0.362727,-0.33139 l 0.297703,-0.462222 c 0.07521,-0.118298 0.218576,-0.294569 0.318071,-0.394065 l 0.355676,-0.356459 c 0.100279,-0.0995 0.148068,-0.289085 0.108897,-0.424618 l -0.183322,-0.61499 -0.232678,-0.651029 c -0.04622,-0.132399 0.02115,-0.19899 0.152768,-0.150418 l 0.430102,0.16452 1.006704,0.426185 c 0.130049,0.05327 0.32904,0.162169 0.445771,0.239729 l 0.101845,0.06737 c 0.116731,0.07834 0.322772,0.16687 0.460655,0.196641 l 0.567985,0.128482 c 0.138667,0.03055 0.355676,0.0141 0.486509,-0.0376 l 0.417567,-0.163736 c 0.130832,-0.05171 0.350192,-0.08774 0.489642,-0.08069 l 0.463006,0.02272 c 0.140233,0.0063 0.352542,-0.04309 0.474757,-0.112813 l 0.512361,-0.289869 c 0.120648,-0.06972 0.32904,-0.161386 0.463006,-0.206824 l 0.375262,-0.125349 c 0.133966,-0.04465 0.354892,-0.08226 0.495909,-0.08461 l 0.461439,-0.0078 c 0.140234,-7.84e-4 0.273416,-0.115948 0.296136,-0.254614 l 0.02742,-0.166087 c 0.0235,-0.138666 0.137883,-0.313371 0.254614,-0.391714 l 0.179404,-0.117514 c 0.118298,-0.07756 0.32669,-0.128482 0.466923,-0.113597 l 0.559367,0.05876 c 0.140234,0.01489 0.336091,-0.05249 0.437936,-0.148851 l 0.283601,-0.269499 c 0.101846,-0.09715 0.08539,-0.232678 -0.03604,-0.303186 l -0.466923,-0.269499 c -0.121432,-0.07051 -0.271066,-0.229545 -0.334524,-0.354893 l -0.11203,-0.220143 c -0.06267,-0.126132 -0.0024,-0.202908 0.13475,-0.171571 l 1.475977,0.33374 c 0.137883,0.03055 0.351759,0.101846 0.481024,0.159036 l 0.457522,0.205258 c 0.128482,0.05797 0.316505,0.180972 0.421484,0.275767 l 0.115164,0.104195 c 0.104196,0.09401 0.165303,0.282034 0.136316,0.419918 l -0.03839,0.185672 c -0.02899,0.137883 -0.162169,0.220143 -0.299269,0.184889 l -0.174704,-0.04622 c -0.1371,-0.03525 -0.358027,-0.03917 -0.49591,-0.0078 l -0.839051,0.190373 c -0.137883,0.03134 -0.161386,0.128482 -0.05171,0.218576 l 0.339224,0.279684 c 0.10968,0.08931 0.300053,0.209175 0.429318,0.265582 l 0.282818,0.126915 c 0.127698,0.05719 0.280467,0.206825 0.340007,0.334524 l 0.230328,0.493559 c 0.05876,0.126915 0.195857,0.302403 0.304753,0.391714 l 0.30632,0.249913 c 0.108897,0.08931 0.259315,0.256964 0.336874,0.375262 l 0.293002,0.44812 c 0.07756,0.118298 0.22171,0.293002 0.321989,0.391714 l 0.400331,0.390931 c 0.100279,0.09871 0.07051,0.156685 -0.06816,0.129265 l -0.644761,-0.125348 c -0.13945,-0.02664 -0.362727,-0.02742 -0.501393,-0.0016 l -0.517846,0.09715 c -0.137883,0.02585 -0.144151,0.08774 -0.01175,0.1371 l 0.239729,0.09009 c 0.130832,0.05014 0.252263,0.168437 0.270282,0.265582 0.01645,0.09636 -0.07913,0.201341 -0.216226,0.234245 l -0.300053,0.07129 c -0.1371,0.0329 -0.337657,0.130833 -0.447337,0.217793 l -0.36351,0.289085 c -0.110463,0.08618 -0.167654,0.267149 -0.127699,0.401898 l 0.06267,0.212309 c 0.03995,0.13475 -0.04309,0.24913 -0.183322,0.254614 l -0.206041,0.01018 c -0.141017,0.0055 -0.311021,0.110463 -0.382313,0.231111 l -0.09479,0.163736 c -0.07051,0.121431 -0.148068,0.332173 -0.173921,0.47084 l -0.01802,0.08774 c -0.02507,0.137883 -0.155902,0.217793 -0.290652,0.177838 l -0.371344,-0.110463 c -0.135533,-0.03995 -0.323556,-0.153552 -0.421484,-0.254614 l -0.201341,-0.208392 c -0.0995,-0.100279 -0.06502,-0.198207 0.07364,-0.217793 l 0.499043,-0.07129 c 0.13945,-0.01958 0.258531,-0.150418 0.266366,-0.290651 l 0.0031,-0.0329 c 0.0078,-0.140234 -0.08383,-0.310238 -0.206825,-0.380746 l -0.30632,-0.176271 c -0.120648,-0.07051 -0.330606,-0.155119 -0.467706,-0.190373 l -0.429318,-0.111247 c -0.136317,-0.03525 -0.36116,-0.06189 -0.502177,-0.05876 l -0.285168,0.0055 c -0.141017,0.0031 -0.365861,-0.02429 -0.50061,-0.06189 l -0.272633,-0.07286 c -0.136316,-0.03682 -0.354892,-0.0329 -0.489642,0.0071 l -0.912693,0.28125 c -0.13475,0.04152 -0.321989,0.156685 -0.41835,0.260098 l -0.477108,0.504527 c -0.09715,0.101846 -0.191939,0.297703 -0.213875,0.437153 l -0.01724,0.11673 c -0.02115,0.139451 -0.11203,0.340008 -0.201341,0.447338 l -0.31102,0.372911 c -0.09009,0.108113 -0.223277,0.292218 -0.29927,0.410516 l -0.140233,0.22171 c -0.07678,0.118298 -0.238162,0.267149 -0.363511,0.33139 l -0.231111,0.117514 c -0.124565,0.06502 -0.272632,0.220143 -0.329039,0.347842 l -0.111247,0.250697 c -0.05797,0.128482 -0.108113,0.347058 -0.11203,0.487291 l -0.01567,0.445771 c -0.0039,0.141017 0.101063,0.288301 0.234245,0.329823 l 0.229545,0.07129 c 0.134749,0.04231 0.352542,0.04309 0.487291,0.0016 L 50.416,30.61252 c 0.133966,-0.03995 0.307104,0.0188 0.387013,0.133182 0.07913,0.114381 0.180972,0.313371 0.228761,0.445771 l 0.09715,0.268715 c 0.04857,0.1324 0.177838,0.308671 0.289085,0.394064 l 0.1371,0.104196 c 0.11203,0.08539 0.302403,0.101846 0.426184,0.03447 0.238162,-0.129266 0.582087,-0.326689 0.602456,-0.38858 0.02037,-0.06032 -0.03996,-0.378395 -0.08774,-0.61029 -0.02899,-0.1371 0.0016,-0.347842 0.07129,-0.470057 l 0.130049,-0.22641 c 0.06972,-0.122215 0.08226,-0.325906 0.03055,-0.456738 l -0.144151,-0.355676 c -0.05171,-0.129266 -0.08931,-0.349409 -0.08304,-0.489643 0.0094,-0.216226 0.01958,-0.495909 0.01958,-0.524113 0,-0.03212 0.255398,-0.397197 0.426185,-0.636926 0.08148,-0.114381 0.25383,-0.239729 0.385446,-0.278117 0.132399,-0.03995 0.2789,0.03447 0.32904,0.166087 l 0.04309,0.11203 c 0.04936,0.132399 0.01567,0.324339 -0.07756,0.430102 l -0.09479,0.109679 c -0.09244,0.105763 -0.157469,0.305537 -0.144934,0.444987 l 7.83e-4,0.01802 c 0.0141,0.141017 0.125349,0.305537 0.250697,0.368211 l 0.181755,0.09088 c 0.125349,0.06267 0.341575,0.11673 0.481025,0.119081 l 0.09558,0.0031 c 0.140234,0.0039 0.367428,-0.0078 0.506094,-0.02664 l 0.212309,-0.0282 c 0.13945,-0.01723 0.335307,0.04544 0.435586,0.143368 l 0.04779,0.04465 c 0.101845,0.09715 0.189589,0.25148 0.199774,0.343925 0.0086,0.09244 -0.08774,0.16687 -0.214659,0.16687 H 55.35316 54.85725 c -0.141016,0 -0.220143,0.108896 -0.177838,0.242862 l 0.0071,0.02272 c 0.04152,0.134749 0.07521,0.357243 0.07521,0.498259 v 0.253831 c 0,0.141017 -0.102629,0.206041 -0.229544,0.146501 l -0.08148,-0.03839 c -0.126916,-0.05876 -0.283601,-0.05092 -0.348626,0.01959 -0.06581,0.06973 -0.09244,0.238162 -0.05876,0.374478 l 0.05327,0.220927 c 0.0329,0.137099 0.0086,0.349408 -0.05562,0.47319 l -0.195857,0.375262 c -0.06424,0.124565 -0.217793,0.17157 -0.341574,0.104979 l -0.141017,-0.07521 c -0.123782,-0.06738 -0.324339,-0.06738 -0.448121,-7.84e-4 l -0.537431,0.285168 c -0.123782,0.06581 -0.329823,0.07599 -0.460655,0.02194 l -0.49591,-0.205258 -0.378395,-0.126132 c -0.133967,-0.04465 -0.247564,-0.19429 -0.254614,-0.334523 l -0.0055,-0.09636 c -0.0063,-0.141017 -0.0063,-0.365077 0.0023,-0.501394 0.0094,-0.135533 -0.09479,-0.274199 -0.231111,-0.307887 l -0.07834,-0.01958 c -0.136316,-0.03447 -0.27655,0.04857 -0.312588,0.184105 l -0.09244,0.350976 c -0.03525,0.135533 -0.06267,0.359593 -0.06032,0.499826 l 0.0063,0.318855 c 0.0023,0.140234 -0.105763,0.279684 -0.24443,0.311021 l -0.616557,0.141801 c -0.1371,0.03134 -0.297703,0.159035 -0.358027,0.285951 l -0.178621,0.367427 c -0.06032,0.126915 -0.185672,0.315721 -0.278117,0.420701 l -0.252264,0.285951 c -0.09323,0.105762 -0.276549,0.227977 -0.410516,0.272632 l -0.83905,0.285168 -0.842968,0.286734 -0.790479,0.229545 c -0.134749,0.04074 -0.173137,0.161386 -0.08539,0.271066 l 0.701167,0.875088 c 0.08618,0.10968 0.141801,0.311021 0.121432,0.450471 l -0.101063,0.673748 c -0.02037,0.13945 -0.151201,0.246779 -0.291435,0.242079 l -0.334523,-0.01253 c -0.141017,-0.0055 -0.367428,-0.03055 -0.504527,-0.05562 l -1.038825,-0.192724 c 0,0 -0.08461,-0.02194 -0.191157,-0.04779 -0.104979,-0.02664 -0.25148,0.04779 -0.329039,0.16687 l -0.279684,0.430885 c -0.07756,0.118298 -0.11203,0.325123 -0.07913,0.461439 l 0.08696,0.364294 c 0.0329,0.1371 -0.03604,0.307887 -0.155902,0.382313 l -0.07756,0.04857 c -0.119081,0.07521 -0.2789,0.229544 -0.35881,0.346275 l -0.14415,0.213876 c -0.07991,0.116731 -0.05014,0.264015 0.06346,0.329823 0.114381,0.06581 0.199774,0.232678 0.18959,0.373695 l -0.01332,0.224843 c -0.0094,0.13945 0.08774,0.296919 0.217793,0.352543 l 0.32669,0.136316 c 0.129265,0.05406 0.332173,0.157469 0.452821,0.228761 l 0.231111,0.1371 c 0.119864,0.07129 0.329039,0.104979 0.466923,0.07364 l 0.203691,-0.04622 c 0.136316,-0.03212 0.343141,0.0055 0.461439,0.08226 l 0.03447,0.0235 c 0.118298,0.07678 0.297703,0.06346 0.401899,-0.03134 l 0.463789,-0.417566 0.347842,-0.358027 c 0.09793,-0.101062 0.131615,-0.287518 0.07834,-0.417567 -0.09323,-0.225627 -0.218576,-0.536648 -0.218576,-0.576602 0,-0.03839 0.225627,-0.192724 0.405032,-0.309454 0.118298,-0.07599 0.325906,-0.16687 0.459872,-0.204475 l 0.305537,-0.08539 c 0.134749,-0.03839 0.318071,-0.156686 0.408165,-0.263232 l 0.101846,-0.119864 c 0.09009,-0.10733 0.16687,-0.308671 0.170004,-0.449688 l 0.0039,-0.143367 c 0.0031,-0.140234 0.10968,-0.289085 0.237378,-0.332957 0.126916,-0.04387 0.33139,-0.02742 0.456739,0.03604 l 0.326689,0.16687 c 0.124565,0.06346 0.323555,0.05484 0.441853,-0.01959 l 0.372911,-0.231111 0.678449,-0.332956 c 0.125348,-0.06189 0.278116,-0.01018 0.342358,0.115163 l 0.09088,0.180189 c 0.06189,0.126915 0.216226,0.278116 0.343141,0.340007 l 0.130049,0.06424 c 0.126916,0.06111 0.314938,0.185673 0.420701,0.2789 l 0.33374,0.293786 0.446554,0.326689 c 0.11438,0.08226 0.305536,0.206041 0.426968,0.275767 l 0.145717,0.08383 c 0.122215,0.06816 0.21701,0.238946 0.211526,0.379179 l -0.01018,0.255398 c -0.0071,0.140233 -0.118298,0.293785 -0.250697,0.341574 l -0.173137,0.06346 c -0.132399,0.04779 -0.340008,0.143367 -0.461439,0.212308 l -0.319638,0.180189 c -0.122999,0.06894 -0.116731,0.16922 0.01175,0.22641 l 0.232678,0.100279 c 0.129265,0.05562 0.344708,0.122998 0.483375,0.149635 l 0.151985,0.02977 c 0.138666,0.02742 0.314937,-0.04544 0.394064,-0.161386 l 0.238162,-0.347059 0.477107,-0.604022 0.289868,-0.320422 c 0.09401,-0.104196 0.114381,-0.287518 0.04387,-0.408949 l -0.09479,-0.163737 C 54.053454,39.85148 53.898335,39.695578 53.775337,39.626637 L 53.54971,39.497371 c -0.121431,-0.07051 -0.33374,-0.135533 -0.473974,-0.148851 l -0.01802,-0.0016 c -0.140234,-0.01253 -0.316505,-0.116731 -0.395631,-0.233461 l -0.08148,-0.119081 c -0.07913,-0.117515 -0.227194,-0.287518 -0.330606,-0.383096 l -0.340008,-0.308671 c -0.104196,-0.09479 -0.19429,-0.285951 -0.202907,-0.424618 l -0.01802,-0.30397 c -0.0078,-0.140233 0.07051,-0.218576 0.176271,-0.174704 0.105763,0.04466 0.278117,0.150418 0.389363,0.239729 l 0.803014,0.651028 0.440286,0.289085 c 0.11673,0.07756 0.318071,0.181755 0.449687,0.232678 l 0.496693,0.195857 c 0.130049,0.05171 0.229544,0.19664 0.220927,0.323555 -0.0094,0.127699 0.01488,0.340791 0.05249,0.476324 l 0.05327,0.193507 c 0.0376,0.135533 0.147285,0.328256 0.24443,0.430102 l 0.22171,0.235028 c 0.09793,0.101845 0.238945,0.279683 0.316505,0.396414 l 0.162952,0.24443 c 0.07834,0.11673 0.253048,0.231111 0.391714,0.25618 l 0.13475,0.0235 c 0.13945,0.02429 0.268715,-0.05954 0.290651,-0.187239 0.02194,-0.126915 0.153552,-0.237379 0.294569,-0.245213 l 0.04857,-0.0031 c 0.141017,-0.0078 0.165303,-0.08461 0.05484,-0.173137 l -0.07756,-0.06581 c -0.110463,-0.08853 -0.231111,-0.241296 -0.270282,-0.342358 -0.03995,-0.101062 -0.118298,-0.258531 -0.174705,-0.350192 -0.05876,-0.09244 -0.05406,-0.252264 0.0078,-0.358026 0.06111,-0.10498 0.215442,-0.235028 0.343924,-0.290652 l 0.09009,-0.03839 c 0.128483,-0.05484 0.321989,-0.100278 0.432452,-0.100278 0.110464,0 0.269499,0.08931 0.355677,0.19899 l 0.05014,0.06346 c 0.08774,0.110463 0.176271,0.30632 0.198207,0.438719 0.02194,0.130833 0.09166,0.340008 0.155902,0.463789 l 0.05249,0.104979 c 0.06502,0.125349 0.186455,0.316505 0.273416,0.428535 l 0.118297,0.152769 c 0.08461,0.111246 0.263232,0.240512 0.394065,0.288301 l 0.09401,0.03369 c 0.132399,0.04779 0.285167,0.143368 0.343141,0.213093 0.05719,0.06973 0.207608,0.07991 0.33374,0.0188 l 0.04857,-0.02194 c 0.126915,-0.05954 0.25148,-0.183322 0.278116,-0.274983 0.02585,-0.09245 0.122215,-0.153552 0.213876,-0.13475 l 0.167654,0.03134 0.342357,0.07129 c 0.18959,0.03995 0.475541,-0.03525 0.640061,-0.166086 l 0.03995,-0.03212 c 0.164519,-0.131616 0.430101,-0.239729 0.593054,-0.239729 0.16217,0 0.30162,0.08304 0.310237,0.183322 0.0094,0.101063 0.01645,0.183322 0.01645,0.183322 l 0.06267,0.668264 0.11438,0.64006 c 0.02429,0.138667 0.01097,0.359594 -0.03055,0.494343 l -0.179405,0.584437 -0.133182,0.350192 c -0.05014,0.131616 -0.201341,0.211526 -0.337657,0.178622 L 61.24369,44.2183 c -0.136316,-0.0329 -0.346275,-0.0047 -0.468489,0.06502 l -0.400332,0.227194 c -0.122998,0.06894 -0.33609,0.125348 -0.476324,0.125348 h -0.461438 l -1.287955,-0.09479 -0.74974,-0.08383 c -0.140234,-0.01488 -0.282034,-0.08774 -0.316505,-0.162169 -0.03525,-0.07521 -0.177838,-0.144151 -0.317288,-0.154335 l -0.145718,-0.01097 c -0.140233,-0.01018 -0.362727,0.01175 -0.499826,0.04857 l -0.271066,0.07443 c -0.1371,0.03604 -0.27185,0.177838 -0.302403,0.314154 l -0.01645,0.07599 c -0.03055,0.1371 0.0071,0.343924 0.08148,0.462222 l 0.01175,0.01723 c 0.07677,0.118298 0.02899,0.247564 -0.106547,0.289085 l -0.180971,0.05641 c -0.133966,0.04152 -0.339224,0.0141 -0.458305,-0.06032 l -0.04779,-0.03055 c -0.118298,-0.07599 -0.328257,-0.155118 -0.465356,-0.177838 l -0.547616,-0.09166 c -0.13945,-0.0235 -0.307887,-0.1418 -0.375262,-0.264798 l -0.0086,-0.01567 c -0.06733,-0.122993 -0.227937,-0.26401 -0.35877,-0.314933 L 52.815638,44.410245 C 52.684023,44.359322 52.46623,44.299782 52.32678,44.279412 l -0.625959,-0.09793 c -0.13945,-0.02037 -0.343141,-0.10733 -0.455955,-0.191156 L 50.9691,43.78507 c -0.113597,-0.08383 -0.135533,-0.242863 -0.04936,-0.35411 l 0.263232,-0.343141 c 0.08539,-0.111246 0.108896,-0.270282 0.05014,-0.353326 -0.05562,-0.08304 -0.05562,-0.240512 0,-0.350192 0.05797,-0.10968 0.0023,-0.248346 -0.125349,-0.310237 l -0.161386,-0.07913 c -0.127698,-0.06189 -0.340791,-0.08774 -0.478674,-0.05797 l -0.535864,0.115164 c -0.1371,0.03055 -0.362727,0.05327 -0.503744,0.05327 H 48.47388 47.471093 c -0.141017,0 -0.361943,0.0376 -0.495126,0.08304 l -1.096015,0.377612 -0.729371,0.252264 c -0.133966,0.04544 -0.354893,0.06737 -0.49356,0.04936 l -0.464572,-0.06111 c -0.13945,-0.0188 -0.36116,-0.06816 -0.494343,-0.112814 l -0.153552,-0.04936 c -0.133182,-0.04309 -0.318071,0.0071 -0.410516,0.11203 l -0.538214,0.60559 c -0.09244,0.104979 -0.273416,0.235028 -0.402682,0.290651 l -0.311021,0.133183 c -0.129265,0.05562 -0.309454,0.185672 -0.401898,0.292219 l -0.332957,0.380745 c -0.09244,0.105763 -0.166086,0.305537 -0.166086,0.445771 v 0.318855 c 0,0.140233 -0.09009,0.325905 -0.198207,0.415216 l -0.527247,0.426968 c -0.108897,0.08774 -0.309454,0.175488 -0.449688,0.19429 l -0.195856,0.0282 c -0.140234,0.01802 -0.315722,0.128482 -0.392498,0.245212 l -0.164519,0.245213 c -0.07678,0.116731 -0.236595,0.2742 -0.35411,0.349409 l -0.335307,0.217793 c -0.119081,0.07521 -0.247563,0.245996 -0.289868,0.380745 l -0.07129,0.228761 c -0.0423,0.13475 -0.153551,0.327473 -0.248346,0.430885 l -0.577386,0.627526 c -0.09479,0.103412 -0.22171,0.290651 -0.280467,0.41835 l -0.115164,0.254614 c -0.05954,0.126915 -0.05484,0.33139 0.01097,0.455955 l 0.112813,0.217793 c 0.06581,0.123781 0.07286,0.325122 0.01489,0.447337 -0.05641,0.123781 -0.08383,0.33609 -0.06032,0.473973 l 0.02664,0.149635 c 0.02272,0.13945 0.01253,0.361944 -0.0235,0.49826 l -0.13945,0.52568 c -0.03525,0.135533 -0.115164,0.348625 -0.176271,0.474757 l -0.256181,0.52803 c -0.06032,0.126915 -0.05484,0.329823 0.01332,0.451254 l 0.0078,0.01645 c 0.06894,0.122998 0.08774,0.332173 0.04387,0.465356 l -0.09479,0.290652 c -0.04465,0.133182 -0.0071,0.329039 0.08383,0.436369 l 1.030207,1.22293 c 0.09009,0.108113 0.217793,0.295352 0.283601,0.419134 l 0.650244,1.206478 c 0.06581,0.123782 0.203692,0.30162 0.307104,0.397981 l 0.900942,0.839051 c 0.101845,0.09715 0.282034,0.233462 0.401898,0.307887 l 0.882139,0.539782 c 0.119865,0.07286 0.328256,0.108113 0.464573,0.07521 l 0.988685,-0.224844 c 0.136317,-0.03134 0.359594,-0.03525 0.496693,-0.0071 l 1.198644,0.238946 c 0.137884,0.0282 0.349409,-0.0047 0.472407,-0.07286 l 0.700384,-0.39093 c 0.122999,-0.06816 0.333741,-0.147285 0.471624,-0.177838 l 1.070945,-0.231112 c 0.137883,-0.03055 0.336874,0.0188 0.444987,0.108897 l 0.371345,0.310237 c 0.109679,0.09009 0.272632,0.247563 0.36586,0.350976 l 0.423835,0.472406 c 0.09401,0.103413 0.282033,0.16452 0.419133,0.13475 l 0.690983,-0.147284 c 0.136317,-0.02977 0.360377,-0.03604 0.499044,-0.0141 l 0.303186,0.04857 c 0.138667,0.02194 0.337657,0.114381 0.44342,0.206825 l 0.295352,0.258531 c 0.105763,0.09323 0.169221,0.279684 0.141801,0.416784 l -0.06894,0.350192 c -0.02742,0.137883 -0.108113,0.348625 -0.176271,0.470056 l -0.256964,0.449688 c -0.06973,0.121431 -0.202908,0.277333 -0.296136,0.347842 -0.09401,0.06972 -0.09636,0.213875 -0.0047,0.320421 l 0.900942,1.056061 c 0.09009,0.106546 0.248346,0.270282 0.352542,0.365077 l 0.642411,0.589137 c 0.103412,0.09479 0.187239,0.286735 0.187239,0.426968 v 0.679232 c 0,0.141017 0.04701,0.358026 0.103412,0.486508 l 0.133183,0.298486 c 0.05641,0.128482 0.172354,0.323556 0.257748,0.434803 l 0.11438,0.147284 c 0.08461,0.11203 0.126915,0.312588 0.09323,0.448904 l -0.08931,0.353326 c -0.03369,0.1371 -0.129265,0.340007 -0.213875,0.451254 l -0.202908,0.272633 c -0.08461,0.111246 -0.197424,0.307887 -0.252264,0.437936 l -0.354109,0.845318 c -0.05484,0.130049 -0.09871,0.348625 -0.09871,0.489642 v 0.508445 c 0,0.141017 0.07051,0.343924 0.156686,0.455954 l 0.734855,0.944814 0.509228,0.571902 c 0.09323,0.105763 0.168436,0.304753 0.168436,0.444987 v 0.890757 c 0,0.141017 0.09009,0.325906 0.199774,0.412866 l 0.239729,0.19194 c 0.110464,0.08774 0.248347,0.260881 0.311021,0.38623 l 0.409733,0.816331 c 0.06189,0.127699 0.112813,0.342358 0.112813,0.483375 v 0.25383 c 0,0.141801 0.114381,0.254614 0.254614,0.254614 h 0.467706 c 0.140234,0 0.362727,-0.03212 0.49826,-0.07051 l 0.826516,-0.240512 c 0.135533,-0.03917 0.358027,-0.08148 0.499044,-0.09401 l 1.316941,-0.122214 c 0.140234,-0.01489 0.354109,-0.07834 0.476324,-0.145718 l 0.655729,-0.352542 c 0.124565,-0.06581 0.314154,-0.188806 0.427751,-0.2742 l 0.824166,-0.625958 c 0.112814,-0.08461 0.271849,-0.24443 0.357243,-0.355677 l 0.666697,-0.867254 c 0.08539,-0.112813 0.242862,-0.27655 0.349408,-0.36586 l 0.670614,-0.564068 c 0.108113,-0.09088 0.256181,-0.260882 0.330607,-0.379179 l 0.450471,-0.713703 c 0.07442,-0.119081 0.158252,-0.327472 0.187239,-0.466139 l 0.150418,-0.730938 c 0.0282,-0.137883 0.13945,-0.321205 0.248346,-0.410516 l 1.006705,-0.823382 c 0.108113,-0.08931 0.295352,-0.216226 0.417566,-0.285168 l 0.701952,-0.387796 c 0.121431,-0.06894 0.253047,-0.234245 0.290651,-0.368995 l 0.245213,-0.867254 c 0.03682,-0.135533 0.07207,-0.35881 0.07599,-0.50061 l 0.0282,-1.060761 c 0.0031,-0.141017 -0.0086,-0.367427 -0.0282,-0.506877 -0.0376,-0.27655 -0.09244,-0.696468 -0.09244,-0.806931 0,-0.170004 0.08539,-1.569989 0.08539,-1.696904 0,-0.09088 0.329039,-0.709785 0.513145,-1.050576 0.06737,-0.122998 0.195856,-0.310237 0.285167,-0.417567 0.265582,-0.318855 0.773243,-0.933845 0.897808,-1.119518 0.170004,-0.255397 1.230765,-1.696904 1.230765,-1.696904 l 0.693333,-0.902508 c 0.08461,-0.111247 0.198991,-0.307104 0.249913,-0.437153 l 0.360377,-0.886056 c 0.05249,-0.130833 0.115947,-0.347842 0.143367,-0.485725 l 0.376829,-2.040045 0.195073,-1.276204 c 0.02115,-0.138667 -0.06972,-0.216226 -0.203691,-0.172354 l -0.810064,0.264799 c -0.133966,0.04465 -0.343141,0.133966 -0.466139,0.199774 l -0.824166,0.439502 c -0.123781,0.06659 -0.332957,0.153552 -0.46849,0.195857 l -0.192723,0.06032 c -0.133182,0.04152 -0.33374,0.0078 -0.44577,-0.07756 l -0.101846,-0.07678 C 68.385471,54.097253 68.23427,53.9343 68.158277,53.814435 l -0.320421,-0.503743 c -0.07678,-0.117515 -0.250697,-0.21466 -0.390931,-0.21466 h -0.08461 c -0.1418,0 -0.324339,-0.09009 -0.408949,-0.20134 l -0.278117,-0.360377 c -0.08539,-0.11203 -0.214659,-0.300053 -0.288301,-0.419917 L 66.13704,51.701605 c -0.07286,-0.119081 -0.215443,-0.292219 -0.323556,-0.38388 -0.223277,-0.19194 -0.571119,-0.483375 -0.656512,-0.512362 -0.06972,-0.02272 -0.177055,-0.184888 -0.259315,-0.327472 -0.07129,-0.120648 -0.156685,-0.33139 -0.199774,-0.465356 l -0.119864,-0.372128 c -0.04387,-0.133966 -0.133183,-0.342358 -0.202124,-0.465356 L 64.179254,48.822508 C 64.109529,48.69951 63.971646,48.520889 63.8698,48.424527 l -0.522546,-0.496693 c -0.102629,-0.09793 -0.231894,-0.279683 -0.291435,-0.407382 l -0.592271,-1.276987 c -0.05876,-0.128482 0.0055,-0.213876 0.144934,-0.193506 l 0.345492,0.05171 c 0.13945,0.02037 0.325122,0.125348 0.415216,0.231894 l 0.965183,1.139104 c 0.09009,0.107329 0.260881,0.25383 0.379962,0.328256 l 0.734072,0.452821 c 0.120648,0.07443 0.216226,0.247563 0.216226,0.38858 v 0.501394 c 0,0.141017 0.09088,0.324339 0.202907,0.408949 l 0.657296,0.504527 c 0.111247,0.08539 0.263232,0.250697 0.340008,0.368995 l 0.795179,1.229197 0.747389,1.224497 c 0.07286,0.119865 0.241296,0.180189 0.372912,0.135533 l 0.873522,-0.300836 1.371781,-0.468489 c 0.132399,-0.04544 0.310237,-0.173138 0.398765,-0.282034 l 0.829649,-1.042742 c 0.08696,-0.110464 0.238946,-0.280467 0.338441,-0.379963 L 73.54748,49.57852 c 0.0995,-0.100279 0.187239,-0.294569 0.197424,-0.435586 0.04309,-0.636926 0.152768,-2.264889 0.152768,-2.366734 0,-0.09166 0.02037,-0.737205 0.0329,-1.103849 0.0055,-0.140234 -0.09636,-0.29927 -0.225627,-0.355677 l -0.423051,-0.180971 c -0.128482,-0.05562 -0.2836,-0.01488 -0.346275,0.09009 -0.06346,0.105763 -0.214659,0.136316 -0.337657,0.06972 l -0.102629,-0.05562 C 72.372339,45.17252 72.196068,45.03307 72.10284,44.927307 l -0.03604,-0.04074 c -0.09323,-0.105763 -0.215442,-0.08618 -0.272633,0.04152 l -0.04857,0.108113 c -0.05562,0.129266 -0.161386,0.329823 -0.234245,0.451255 l -0.07207,0.119864 c -0.07286,0.120648 -0.242863,0.240512 -0.380746,0.267932 l -0.177055,0.03525 c -0.137883,0.0282 -0.227977,-0.06189 -0.202124,-0.200557 l 0.03134,-0.159819 c 0.02664,-0.137883 -0.06424,-0.267932 -0.203691,-0.291435 L 70.390275,45.2391 c -0.138666,-0.02272 -0.350192,0.0071 -0.47319,0.06816 -0.122214,0.06032 -0.294569,0.02194 -0.383096,-0.08618 l -0.832783,-1.007487 c -0.08931,-0.108897 -0.16217,-0.310238 -0.16217,-0.451255 v -0.508444 c 0,-0.140234 0.105763,-0.212309 0.236595,-0.158253 l 0.06111,0.02429 c 0.130049,0.05406 0.302403,0.188806 0.386229,0.302403 l 0.1371,0.185672 c 0.08148,0.112814 0.243646,0.270283 0.359593,0.350192 l 0.231112,0.158253 0.25148,0.163736 c 0.118297,0.07599 0.325122,0.163736 0.463005,0.195857 l 0.21936,0.05171 c 0.1371,0.03212 0.340008,-0.0086 0.453605,-0.09244 l 0.01802,-0.01332 c 0.113597,-0.08226 0.318855,-0.157469 0.459871,-0.167653 l 1.315375,-0.09088 c 0.140234,-0.01097 0.355676,-0.07286 0.477108,-0.140233 l 0.953431,-0.519413 c 0.123781,-0.06737 0.309454,-0.04622 0.412866,0.04779 l 0.426968,0.382313 c 0.104979,0.09401 0.303187,0.154335 0.441853,0.133183 0.370561,-0.05719 1.020806,-0.169221 1.020806,-0.260882 0,-0.08618 0.320422,-0.515495 0.521763,-0.77481 0.08461,-0.110463 0.184889,-0.08931 0.220143,0.04701 l 0.254614,0.991819 c 0.03525,0.136317 0.106546,0.352543 0.158252,0.483375 l 0.489643,1.224497 c 0.05092,0.130049 0.151984,0.334524 0.222493,0.455955 l 0.930712,1.596625 c 0.07129,0.121432 0.163736,0.32904 0.206041,0.462222 l 0.481808,1.509665 c 0.04309,0.133183 0.16452,0.314938 0.27185,0.406599 l 0.416783,0.351759 c 0.108113,0.09009 0.174704,0.05092 0.149635,-0.08696 -0.135533,-0.774027 -0.528031,-3.080437 -0.422268,-3.185417 0.09244,-0.09323 -0.330606,-0.701951 -0.569552,-1.027073 -0.08148,-0.112814 -0.13945,-0.316505 -0.122214,-0.456738 0.07443,-0.654162 0.267932,-2.359684 0.267932,-2.462313 0,-0.09714 -0.318072,-1.076429 -0.471623,-1.540218 -0.04466,-0.133183 -0.04936,-0.351759 -0.0078,-0.486509 l 0.2789,-0.953431 c 0.03917,-0.13475 0.133183,-0.148068 0.208392,-0.02899 l 1.255051,1.988339 c 0.07599,0.118298 0.151985,0.210742 0.173137,0.205258 0.0188,-0.0055 0.06111,0.101846 0.09166,0.238162 0.529596,2.328347 0.808497,4.750704 0.808497,7.23652 C 82.680678,68.020399 68.020399,82.680678 50,82.680678 Z"
     id="path22"
     style="fill:#aaccff;stroke-width:0.78342748"
     inkscape:connector-curvature="0" /></svg>