<?xml version="1.0" encoding="UTF-8" standalone="no"?>
<!-- Created with Inkscape (http://www.inkscape.org/) -->

<svg
   xmlns:dc="http://purl.org/dc/elements/1.1/"
   xmlns:cc="http://creativecommons.org/ns#"
   xmlns:rdf="http://www.w3.org/1999/02/22-rdf-syntax-ns#"
   xmlns:svg="http://www.w3.org/2000/svg"
   xmlns="http://www.w3.org/2000/svg"
   xmlns:sodipodi="http://sodipodi.sourceforge.net/DTD/sodipodi-0.dtd"
   xmlns:inkscape="http://www.inkscape.org/namespaces/inkscape"
   width="138.78198mm"
   height="133.35005mm"
   viewBox="0 0 138.78198 133.35005"
   version="1.1"
   id="svg8"
   inkscape:version="0.92.3 (2405546, 2018-03-11)"
   sodipodi:docname="accueil2.svg">
  <defs
     id="defs2">
    <filter
       inkscape:collect="always"
       style="color-interpolation-filters:sRGB"
       id="filter1033"
       x="-0.021870919"
       width="1.0437418"
       y="-0.20910729"
       height="1.4182146">
      <feGaussianBlur
         inkscape:collect="always"
         stdDeviation="0.47737678"
         id="feGaussianBlur1035" />
    </filter>
    <filter
       inkscape:collect="always"
       style="color-interpolation-filters:sRGB"
       id="filter1148"
       x="-0.022421837"
       width="1.0448437"
       y="-0.091272727"
       height="1.1825454">
      <feGaussianBlur
         inkscape:collect="always"
         stdDeviation="0.50313488"
         id="feGaussianBlur1150" />
    </filter>
    <filter
       inkscape:collect="always"
       style="color-interpolation-filters:sRGB"
       id="filter2262"
       x="-0.042958535"
       width="1.0859171"
       y="-0.25832379"
       height="1.5166476">
      <feGaussianBlur
         inkscape:collect="always"
         stdDeviation="0.53939185"
         id="feGaussianBlur2264" />
    </filter>
    <filter
       inkscape:collect="always"
       style="color-interpolation-filters:sRGB"
       id="filter2266"
       x="-0.035745952"
       width="1.071492"
       y="-0.28491622"
       height="1.5698324">
      <feGaussianBlur
         inkscape:collect="always"
         stdDeviation="0.53939185"
         id="feGaussianBlur2268" />
    </filter>
    <filter
       inkscape:collect="always"
       style="color-interpolation-filters:sRGB"
       id="filter2270"
       x="-0.068219401"
       width="1.1364388"
       y="-0.25492507"
       height="1.5098501">
      <feGaussianBlur
         inkscape:collect="always"
         stdDeviation="0.53939185"
         id="feGaussianBlur2272" />
    </filter>
    <filter
       inkscape:collect="always"
       style="color-interpolation-filters:sRGB"
       id="filter2404"
       x="-0.036444485"
       width="1.072889"
       y="-0.060898907"
       height="1.1217978">
      <feGaussianBlur
         inkscape:collect="always"
         stdDeviation="0.39437322"
         id="feGaussianBlur2406" />
    </filter>
    <filter
       inkscape:collect="always"
       style="color-interpolation-filters:sRGB"
       id="filter2829"
       x="-0.10157474"
       width="1.2031496"
       y="-0.081141055"
       height="1.1622821">
      <feGaussianBlur
         inkscape:collect="always"
         stdDeviation="0.49760153"
         id="feGaussianBlur2831" />
    </filter>
    <filter
       inkscape:collect="always"
       style="color-interpolation-filters:sRGB"
       id="filter2833"
       x="-0.10443845"
       width="1.2088768"
       y="-0.10872884"
       height="1.2174577">
      <feGaussianBlur
         inkscape:collect="always"
         stdDeviation="0.49760153"
         id="feGaussianBlur2835" />
    </filter>
    <filter
       inkscape:collect="always"
       style="color-interpolation-filters:sRGB"
       id="filter2837"
       x="-0.07839106"
       width="1.1567822"
       y="-0.24446753"
       height="1.4889351">
      <feGaussianBlur
         inkscape:collect="always"
         stdDeviation="0.49760153"
         id="feGaussianBlur2839" />
    </filter>
    <filter
       inkscape:collect="always"
       style="color-interpolation-filters:sRGB"
       id="filter2973"
       x="-0.029471464"
       width="1.0589429"
       y="-0.089977272"
       height="1.1799545">
      <feGaussianBlur
         inkscape:collect="always"
         stdDeviation="0.66132504"
         id="feGaussianBlur2975" />
    </filter>
  </defs>
  <sodipodi:namedview
     id="base"
     pagecolor="#ffffff"
     bordercolor="#666666"
     borderopacity="1.0"
     inkscape:pageopacity="1"
     inkscape:pageshadow="2"
     inkscape:zoom="0.7"
     inkscape:cx="170.33275"
     inkscape:cy="110.33159"
     inkscape:document-units="mm"
     inkscape:current-layer="layer2"
     showgrid="false"
     inkscape:snap-global="false"
     showguides="true"
     inkscape:window-width="1920"
     inkscape:window-height="1043"
     inkscape:window-x="1600"
     inkscape:window-y="0"
     inkscape:window-maximized="1"
     fit-margin-top="0"
     fit-margin-left="0"
     fit-margin-right="0"
     fit-margin-bottom="0" />
  <metadata
     id="metadata5">
    <rdf:RDF>
      <cc:Work
         rdf:about="">
        <dc:format>image/svg+xml</dc:format>
        <dc:type
           rdf:resource="http://purl.org/dc/dcmitype/StillImage" />
        <dc:title></dc:title>
      </cc:Work>
    </rdf:RDF>
  </metadata>
  <g
     inkscape:groupmode="layer"
     id="layer2"
     inkscape:label="texte"
     style="display:inline"
     transform="translate(-74.290766,-31.864861)">
    <path
       inkscape:connector-curvature="0"
       d="m 146.21558,143.77899 c 0.009,0.4308 -0.0139,0.85693 0.0402,1.29517 0.13659,1.10402 0.50832,2.22804 1.02952,3.35791 0.21381,0.46339 0.441,0.93514 0.76201,1.38586 0.78532,1.10209 1.59301,2.20373 2.70597,3.22315 0.72965,0.66847 1.41036,1.36671 2.20818,1.99492 1.10123,0.86712 2.2333,1.72261 3.4636,2.5045 0.0751,0.0478 0.18795,0.0926 0.14924,0.1942 -0.34946,-0.0912 -0.70258,-0.18302 -1.05536,-0.2757 -0.37412,-0.0984 -0.74904,-0.19066 -1.12179,-0.29872 -0.35242,-0.10221 -0.70088,-0.23052 -1.05365,-0.3303 -0.35872,-0.10141 -0.69147,-0.31791 -1.07812,-0.36521 0.0317,0.24308 0.24895,0.38027 0.50556,0.47843 0.42103,0.16092 0.84526,0.33071 1.27428,0.45099 1.08039,0.3016 2.16397,0.57813 3.24645,0.8621 0.13749,0.036 0.27659,0.0614 0.41405,0.0847 0.12191,0.0206 0.22772,0.0136 0.26715,-0.0782 -0.0172,-0.0344 -0.0325,-0.0763 -0.0587,-0.11675 -0.37646,-0.58447 -0.71931,-1.17112 -0.97005,-1.7647 -0.13672,-0.3237 -0.27973,-0.64761 -0.42376,-0.9713 -0.0304,-0.0681 -0.0616,-0.14505 -0.19655,-0.15657 -0.2045,0.24414 -0.22507,0.25725 -0.0838,0.58728 0.18688,0.43592 0.40614,0.87183 0.61188,1.3078 0.0499,0.10594 0.10147,0.21183 0.19322,0.40359 -0.19817,-0.12145 -0.29904,-0.17348 -0.38314,-0.23657 -0.71556,-0.53498 -1.41811,-1.07882 -2.1441,-1.60663 -1.23947,-0.90152 -2.2995,-1.88938 -3.34031,-2.88869 -0.7371,-0.70763 -1.36892,-1.44257 -1.91118,-2.20356 -0.13759,-0.19289 -0.29615,-0.38239 -0.42706,-0.57614 -0.19627,-0.29033 -0.39843,-0.58145 -0.55974,-0.87504 -0.48731,-0.88692 -0.8324,-1.77678 -1.06682,-2.65704 -0.23784,-0.89305 -0.46737,-1.78815 -0.56469,-2.6664 -0.003,-0.0271 -0.003,-0.0614 -0.0259,-0.0823 -0.0517,-0.0465 -0.1165,-0.10861 -0.17752,-0.12299 -0.0616,-0.0149 -0.13735,0.0112 -0.18426,0.0378 -0.0345,0.0193 -0.0458,0.0654 -0.0441,0.1045 z"
       id="path2-9-7"
       style="fill:#666666;stroke-width:0.14277044;filter:url(#filter2829)" />
    <path
       inkscape:connector-curvature="0"
       d="m 141.66076,143.4917 c -0.11424,0.43092 -0.2068,0.86904 -0.35305,1.28996 -0.3686,1.06028 -0.89773,2.05039 -1.5272,2.98899 -0.25818,0.38492 -0.52734,0.77313 -0.85323,1.1041 -0.79713,0.80912 -1.60892,1.60921 -2.60189,2.20916 -0.65102,0.39346 -1.27717,0.83573 -1.96312,1.16243 -0.94682,0.45094 -1.91111,0.87832 -2.9218,1.19379 -0.0617,0.0193 -0.14765,0.0211 -0.14765,0.13839 0.25411,0.0423 0.51077,0.0854 0.76743,0.12754 0.27221,0.0446 0.5434,0.0956 0.81715,0.12985 0.25882,0.0323 0.5216,0.0369 0.78004,0.0718 0.26278,0.0356 0.53742,-0.0548 0.80504,0.0461 -0.0822,0.23285 -0.26048,0.28765 -0.45492,0.28801 -0.31901,4.5e-4 -0.64235,0.009 -0.95638,-0.0349 -0.7905,-0.11105 -1.5768,-0.24859 -2.36424,-0.3782 -0.1,-0.0165 -0.19839,-0.0443 -0.29516,-0.0737 -0.0858,-0.0261 -0.15402,-0.0738 -0.15695,-0.18147 0.02,-0.0281 0.0407,-0.0644 0.0682,-0.0951 0.39626,-0.44447 0.77086,-0.90407 1.0863,-1.40602 0.172,-0.27374 0.3482,-0.54527 0.52504,-0.8162 0.0373,-0.0569 0.0773,-0.12253 0.16945,-0.0823 0.0737,0.32463 0.084,0.34574 -0.0926,0.62412 -0.23346,0.36758 -0.48833,0.72271 -0.73428,1.0831 -0.0597,0.0876 -0.12048,0.17452 -0.2295,0.33255 0.16167,-0.0463 0.24149,-0.06 0.31302,-0.0912 0.60805,-0.26434 1.20972,-0.54259 1.82288,-0.7957 1.04689,-0.43251 1.9969,-1.02098 2.93708,-1.62837 0.66582,-0.43007 1.26889,-0.92812 1.81931,-1.48682 0.13961,-0.14156 0.29223,-0.27165 0.42763,-0.41664 0.20298,-0.21723 0.41004,-0.433 0.59071,-0.66694 0.54583,-0.70674 0.99833,-1.47107 1.37523,-2.26824 0.38236,-0.80875 0.75976,-1.62276 1.04549,-2.47057 0.009,-0.0261 0.0172,-0.0609 0.0379,-0.073 0.0459,-0.027 0.10442,-0.0647 0.14841,-0.0558 0.0445,0.009 0.088,0.0641 0.11233,0.10886 0.018,0.0327 0.0138,0.0835 0.003,0.12228 z"
       id="path2-3-9"
       style="fill:#666666;stroke-width:0.12474014;filter:url(#filter2833)" />
    <path
       inkscape:connector-curvature="0"
       d="m 149.86286,144.83569 c 0.33922,0.28925 0.66472,0.59677 1.02458,0.85957 0.90662,0.66189 1.90528,1.1747 2.95711,1.58806 0.43138,0.16949 0.87366,0.33544 1.33,0.42203 1.11597,0.21145 2.23885,0.40714 3.39676,0.33514 0.75921,-0.0471 1.52578,-0.04 2.27572,-0.16183 1.03514,-0.16824 2.07117,-0.36606 3.08175,-0.68177 0.0618,-0.0188 0.1334,-0.0667 0.20017,0.0297 -0.18484,0.17944 -0.37132,0.36098 -0.55835,0.54173 -0.19841,0.19163 -0.39233,0.38793 -0.59789,0.57193 -0.19441,0.17389 -0.40785,0.32726 -0.60046,0.50308 -0.19578,0.17886 -0.47303,0.26086 -0.63563,0.49617 0.20014,0.14465 0.37791,0.0882 0.53797,-0.0222 0.26254,-0.18123 0.53324,-0.35827 0.76643,-0.57313 0.58672,-0.5413 1.15487,-1.10199 1.72849,-1.6568 0.0728,-0.0705 0.13789,-0.14936 0.20072,-0.22861 0.0557,-0.0703 0.0846,-0.14837 0.0258,-0.23856 -0.0325,-0.0118 -0.0701,-0.0298 -0.11021,-0.0394 -0.57882,-0.13985 -1.14843,-0.30446 -1.6935,-0.53758 -0.29724,-0.12715 -0.59668,-0.25008 -0.89631,-0.37217 -0.0631,-0.0256 -0.13331,-0.0568 -0.18612,0.029 0.12415,0.30886 0.12775,0.33207 0.43142,0.46041 0.40119,0.16931 0.81289,0.31619 1.22025,0.47249 0.099,0.038 0.19841,0.0749 0.378,0.14276 -0.15928,0.0539 -0.23271,0.0881 -0.30926,0.10322 -0.65038,0.12883 -1.30346,0.24259 -1.95165,0.38352 -1.10693,0.24038 -2.22298,0.29734 -3.34172,0.33319 -0.79222,0.0254 -1.57157,-0.0407 -2.34214,-0.18675 -0.19538,-0.037 -0.3949,-0.057 -0.58876,-0.0991 -0.29054,-0.063 -0.58361,-0.12258 -0.86532,-0.21207 -0.85107,-0.27034 -1.6582,-0.64114 -2.42186,-1.08199 -0.77475,-0.44726 -1.54842,-0.90166 -2.26596,-1.43605 -0.0223,-0.0164 -0.0488,-0.0403 -0.0727,-0.0384 -0.0531,0.004 -0.12268,0.006 -0.15379,0.0386 -0.0315,0.0327 -0.0359,0.10278 -0.0304,0.15344 0.003,0.0372 0.0362,0.0765 0.0671,0.10224 z"
       id="path2-6-2"
       style="fill:#666666;stroke-width:0.12474014;filter:url(#filter2837)" />
    <path
       inkscape:connector-curvature="0"
       d="m 164.49644,136.07737 c 0.76043,-0.0949 1.51265,-0.15558 2.28619,-0.30105 1.94871,-0.36674 3.93254,-0.99055 5.92658,-1.77647 0.81781,-0.32234 1.65034,-0.66084 2.44571,-1.09602 1.94475,-1.0647 3.88872,-2.15337 5.68732,-3.5543 1.17937,-0.91845 2.41137,-1.79017 3.51959,-2.77401 1.52975,-1.35798 3.03895,-2.74687 4.41815,-4.22684 0.0841,-0.0904 0.16332,-0.22074 0.34265,-0.19932 -0.16072,0.39436 -0.32252,0.79274 -0.4857,1.19095 -0.17333,0.42233 -0.33596,0.84426 -0.52631,1.26707 -0.18035,0.39964 -0.40631,0.80032 -0.58223,1.19993 -0.17869,0.40632 -0.56061,0.80761 -0.64372,1.23326 0.42903,-0.0825 0.67107,-0.34362 0.84411,-0.63943 0.28375,-0.48524 0.58364,-0.97563 0.79515,-1.46146 0.53141,-1.22306 1.01869,-2.44451 1.51907,-3.66627 0.0635,-0.15515 0.10815,-0.31 0.14922,-0.46256 0.0365,-0.13528 0.0233,-0.2479 -0.13832,-0.272 -0.0607,0.0253 -0.13459,0.0503 -0.20612,0.086 -1.03136,0.52159 -2.06666,1.00737 -3.11424,1.3954 -0.5715,0.21096 -1.14311,0.42946 -1.71422,0.64941 -0.11995,0.047 -0.256,0.0952 -0.27622,0.24271 0.43102,0.17182 0.45428,0.19106 1.03673,-0.0267 0.76933,-0.28797 1.53863,-0.61063 2.30804,-0.91897 0.18703,-0.0746 0.37365,-0.15191 0.71226,-0.28829 -0.21419,0.23752 -0.30603,0.35641 -0.41721,0.45954 -0.94378,0.87671 -1.90317,1.7412 -2.83429,2.62773 -1.59033,1.51367 -3.33325,2.85134 -5.09637,4.1706 -1.24851,0.93428 -2.54533,1.76065 -3.88818,2.49582 -0.34037,0.18652 -0.67473,0.3949 -1.01664,0.57437 -0.51238,0.26899 -1.02607,0.5446 -1.54417,0.77666 -1.56519,0.70112 -3.13574,1.24958 -4.68935,1.67714 -1.57622,0.43375 -3.15609,0.85892 -4.70628,1.13846 -0.048,0.008 -0.10855,0.0151 -0.1453,0.0443 -0.0821,0.0648 -0.19158,0.14708 -0.21698,0.21561 -0.0252,0.0695 0.02,0.14549 0.0674,0.19064 0.0341,0.0335 0.11539,0.0364 0.18438,0.027 z"
       id="path2-0-0-6"
       style="fill:#666666;stroke-width:0.19681409;filter:url(#filter2404)" />
    <rect
       style="opacity:1;fill:#666666;fill-opacity:1;fill-rule:nonzero;stroke:none;stroke-width:0.09207657;stroke-linecap:round;stroke-miterlimit:4;stroke-dasharray:none;stroke-dashoffset:0;stroke-opacity:1;filter:url(#filter2262)"
       id="rect876-7-2"
       width="30.134649"
       height="5.0113096"
       x="165.31668"
       y="140.71504" />
    <rect
       style="opacity:1;fill:#666666;fill-opacity:1;fill-rule:nonzero;stroke:none;stroke-width:0.09611341;stroke-linecap:round;stroke-miterlimit:4;stroke-dasharray:none;stroke-dashoffset:0;stroke-opacity:1;filter:url(#filter2266)"
       id="rect876-6-9"
       width="36.215023"
       height="4.5435829"
       x="157.47418"
       y="159.37679" />
    <rect
       style="opacity:0.86000001;fill:#666666;fill-opacity:1;fill-rule:nonzero;stroke:none;stroke-width:0.2;stroke-linecap:round;stroke-miterlimit:4;stroke-dasharray:none;stroke-dashoffset:0;stroke-opacity:1;filter:url(#filter1148)"
       id="rect876-56"
       width="53.854809"
       height="13.229842"
       x="108.21797"
       y="129.11276" />
    <rect
       style="opacity:0.86000001;fill:#aaffaa;fill-opacity:1;fill-rule:nonzero;stroke:none;stroke-width:0.2;stroke-linecap:round;stroke-miterlimit:4;stroke-dasharray:none;stroke-dashoffset:0;stroke-opacity:1"
       id="rect876"
       width="53.854809"
       height="13.229842"
       x="107.01852"
       y="128.38187" />
    <rect
       style="opacity:1;fill:#aaffaa;fill-opacity:1;fill-rule:nonzero;stroke:none;stroke-width:0.09611341;stroke-linecap:round;stroke-miterlimit:4;stroke-dasharray:none;stroke-dashoffset:0;stroke-opacity:1"
       id="rect876-6"
       width="36.215019"
       height="4.5435824"
       x="156.79236"
       y="158.52156" />
    <text
       xml:space="preserve"
       style="font-style:normal;font-weight:normal;font-size:2.64583325px;line-height:125%;font-family:sans-serif;letter-spacing:0px;word-spacing:0px;fill:#000000;fill-opacity:1;stroke:none;stroke-width:0.26458332px;stroke-linecap:butt;stroke-linejoin:miter;stroke-opacity:1"
       x="158.20062"
       y="161.52328"
       id="text851"><tspan
         sodipodi:role="line"
         id="tspan849"
         x="158.20062"
         y="161.52328"
         style="stroke-width:0.26458332px">ou simplements les relire</tspan></text>
    <g
       id="g2305"
       transform="translate(-15.756426,1.7831082)">
      <rect
         y="115.4834"
         x="208.5585"
         height="5.0781217"
         width="18.976133"
         id="rect876-5-1"
         style="opacity:1;fill:#666666;fill-opacity:1;fill-rule:nonzero;stroke:none;stroke-width:0.07355223;stroke-linecap:round;stroke-miterlimit:4;stroke-dasharray:none;stroke-dashoffset:0;stroke-opacity:1;filter:url(#filter2270)" />
      <rect
         y="114.80112"
         x="208.36574"
         height="5.0781217"
         width="18.976133"
         id="rect876-5"
         style="opacity:1;fill:#aaffaa;fill-opacity:1;fill-rule:nonzero;stroke:none;stroke-width:0.07355223;stroke-linecap:round;stroke-miterlimit:4;stroke-dasharray:none;stroke-dashoffset:0;stroke-opacity:1" />
      <text
         id="text855"
         y="118.32655"
         x="209.9402"
         style="font-style:normal;font-weight:normal;font-size:2.64583325px;line-height:125%;font-family:sans-serif;letter-spacing:0px;word-spacing:0px;fill:#000000;fill-opacity:1;stroke:none;stroke-width:0.26458332px;stroke-linecap:butt;stroke-linejoin:miter;stroke-opacity:1"
         xml:space="preserve"><tspan
           style="stroke-width:0.26458332px"
           y="118.32655"
           x="209.9402"
           id="tspan853"
           sodipodi:role="line">les modifier</tspan></text>
    </g>
    <rect
       style="opacity:1;fill:#aaffaa;fill-opacity:1;fill-rule:nonzero;stroke:none;stroke-width:0.09207656;stroke-linecap:round;stroke-miterlimit:4;stroke-dasharray:none;stroke-dashoffset:0;stroke-opacity:1"
       id="rect876-7"
       width="30.134649"
       height="5.0113091"
       x="164.68028"
       y="140.19406" />
    <text
       xml:space="preserve"
       style="font-style:normal;font-weight:normal;font-size:2.64583325px;line-height:125%;font-family:sans-serif;letter-spacing:0px;word-spacing:0px;fill:#000000;fill-opacity:1;stroke:none;stroke-width:0.26458332px;stroke-linecap:butt;stroke-linejoin:miter;stroke-opacity:1"
       x="168.04677"
       y="143.4826"
       id="text859"><tspan
         sodipodi:role="line"
         id="tspan857"
         x="168.04677"
         y="143.4826"
         style="stroke-width:0.26458332px">réimprimer le pdf</tspan></text>
    <rect
       style="opacity:1;fill:#666666;fill-opacity:1;fill-rule:nonzero;stroke:none;stroke-width:0.12693894;stroke-linecap:round;stroke-miterlimit:4;stroke-dasharray:none;stroke-dashoffset:0;stroke-opacity:1;filter:url(#filter1033)"
       id="rect876-3-3"
       width="52.384827"
       height="5.4790258"
       x="75.43647"
       y="149.40756" />
    <rect
       style="opacity:1;fill:#aaffaa;fill-opacity:1;fill-rule:nonzero;stroke:none;stroke-width:0.12693894;stroke-linecap:round;stroke-miterlimit:4;stroke-dasharray:none;stroke-dashoffset:0;stroke-opacity:1"
       id="rect876-3"
       width="52.384827"
       height="5.4790258"
       x="74.991425"
       y="149.04735" />
    <text
       xml:space="preserve"
       style="font-style:normal;font-weight:normal;font-size:2.64583325px;line-height:125%;font-family:sans-serif;letter-spacing:0px;word-spacing:0px;fill:#000000;fill-opacity:1;stroke:none;stroke-width:0.26458332px;stroke-linecap:butt;stroke-linejoin:miter;stroke-opacity:1"
       x="75.614342"
       y="152.56975"
       id="text863"><tspan
         sodipodi:role="line"
         id="tspan861"
         x="75.614342"
         y="152.56975"
         style="stroke-width:0.26458332px">les supprimer (attention c'est définitif)</tspan></text>
    <path
       inkscape:connector-curvature="0"
       d="m 146.14572,143.22896 c 0.009,0.4308 -0.0139,0.85693 0.0402,1.29517 0.13659,1.10402 0.50832,2.22804 1.02952,3.35791 0.21381,0.46339 0.441,0.93514 0.76201,1.38586 0.78532,1.10209 1.59301,2.20373 2.70597,3.22315 0.72965,0.66847 1.41036,1.36671 2.20818,1.99492 1.10123,0.86712 2.2333,1.72261 3.4636,2.5045 0.0751,0.0478 0.18795,0.0926 0.14924,0.1942 -0.34946,-0.0912 -0.70258,-0.18302 -1.05536,-0.2757 -0.37412,-0.0984 -0.74904,-0.19066 -1.12179,-0.29872 -0.35242,-0.10221 -0.70088,-0.23052 -1.05365,-0.3303 -0.35872,-0.10141 -0.69147,-0.31791 -1.07812,-0.36521 0.0317,0.24308 0.24895,0.38027 0.50556,0.47843 0.42103,0.16092 0.84526,0.33071 1.27428,0.45099 1.08039,0.3016 2.16397,0.57813 3.24645,0.8621 0.13749,0.036 0.27659,0.0614 0.41405,0.0847 0.12191,0.0206 0.22772,0.0136 0.26715,-0.0782 -0.0172,-0.0344 -0.0325,-0.0763 -0.0587,-0.11675 -0.37646,-0.58447 -0.71931,-1.17112 -0.97005,-1.7647 -0.13672,-0.3237 -0.27973,-0.64761 -0.42376,-0.9713 -0.0304,-0.0681 -0.0616,-0.14505 -0.19655,-0.15657 -0.2045,0.24414 -0.22507,0.25725 -0.0838,0.58728 0.18688,0.43592 0.40614,0.87183 0.61188,1.3078 0.0499,0.10594 0.10147,0.21183 0.19322,0.40359 -0.19818,-0.12145 -0.29904,-0.17348 -0.38315,-0.23657 -0.71555,-0.53498 -1.4181,-1.07882 -2.14409,-1.60663 -1.23947,-0.90152 -2.29951,-1.88938 -3.34032,-2.88869 -0.73709,-0.70763 -1.36891,-1.44257 -1.91117,-2.20356 -0.13759,-0.19289 -0.29615,-0.38239 -0.42706,-0.57614 -0.19628,-0.29033 -0.39843,-0.58145 -0.55974,-0.87504 -0.48731,-0.88692 -0.8324,-1.77678 -1.06683,-2.65704 -0.23783,-0.89305 -0.46736,-1.78815 -0.56468,-2.6664 -0.003,-0.0271 -0.003,-0.0614 -0.0259,-0.0823 -0.0517,-0.0465 -0.1165,-0.10861 -0.17752,-0.12299 -0.0616,-0.0149 -0.13735,0.0112 -0.18426,0.0378 -0.0345,0.0193 -0.0458,0.0654 -0.0441,0.1045 z"
       id="path2-9"
       style="fill:#008000;stroke-width:0.14277042" />
    <path
       inkscape:connector-curvature="0"
       d="m 141.5909,142.94167 c -0.11424,0.43092 -0.2068,0.86904 -0.35305,1.28996 -0.3686,1.06028 -0.89773,2.05039 -1.5272,2.98899 -0.25818,0.38492 -0.52734,0.77313 -0.85323,1.1041 -0.79713,0.80912 -1.60892,1.60921 -2.60189,2.20916 -0.65102,0.39346 -1.27717,0.83573 -1.96312,1.16243 -0.94682,0.45094 -1.91111,0.87832 -2.9218,1.19379 -0.0617,0.0193 -0.14765,0.0211 -0.14765,0.13839 0.25411,0.0423 0.51077,0.0854 0.76743,0.12754 0.27221,0.0446 0.5434,0.0956 0.81715,0.12985 0.25882,0.0323 0.5216,0.0369 0.78004,0.0718 0.26278,0.0356 0.53742,-0.0548 0.80504,0.0461 -0.0822,0.23285 -0.26048,0.28765 -0.45492,0.28801 -0.31901,4.6e-4 -0.64235,0.009 -0.95638,-0.0349 -0.7905,-0.11105 -1.5768,-0.24859 -2.36424,-0.3782 -0.1,-0.0165 -0.19839,-0.0443 -0.29516,-0.0737 -0.0858,-0.0261 -0.15402,-0.0738 -0.15695,-0.18147 0.02,-0.0281 0.0407,-0.0644 0.0682,-0.0951 0.39626,-0.44447 0.77086,-0.90407 1.0863,-1.40602 0.172,-0.27374 0.3482,-0.54527 0.52504,-0.8162 0.0373,-0.0569 0.0773,-0.12253 0.16945,-0.0823 0.0737,0.32463 0.084,0.34574 -0.0926,0.62412 -0.23346,0.36758 -0.48833,0.72271 -0.73428,1.0831 -0.0597,0.0876 -0.12048,0.17452 -0.2295,0.33255 0.16167,-0.0463 0.24149,-0.06 0.31302,-0.0912 0.60805,-0.26434 1.20972,-0.54259 1.82287,-0.7957 1.0469,-0.43251 1.99691,-1.02098 2.93709,-1.62837 0.66581,-0.43007 1.26889,-0.92812 1.81931,-1.48682 0.13961,-0.14156 0.29223,-0.27165 0.42763,-0.41664 0.20298,-0.21723 0.41004,-0.433 0.59071,-0.66694 0.54583,-0.70674 0.99833,-1.47107 1.37522,-2.26824 0.38237,-0.80875 0.75977,-1.62276 1.0455,-2.47057 0.009,-0.0261 0.0172,-0.0609 0.0379,-0.073 0.0459,-0.027 0.10442,-0.0647 0.14841,-0.0558 0.0445,0.009 0.088,0.0641 0.11233,0.10886 0.018,0.0327 0.0138,0.0835 0.003,0.12228 z"
       id="path2-3"
       style="fill:#008000;stroke-width:0.12474014" />
    <path
       inkscape:connector-curvature="0"
       d="m 149.793,144.28566 c 0.33922,0.28925 0.66472,0.59677 1.02458,0.85957 0.90662,0.66189 1.90528,1.1747 2.95711,1.58806 0.43138,0.16949 0.87366,0.33544 1.33,0.42203 1.11597,0.21145 2.23885,0.40714 3.39676,0.33514 0.75921,-0.0471 1.52578,-0.04 2.27572,-0.16183 1.03514,-0.16824 2.07117,-0.36606 3.08175,-0.68177 0.0618,-0.0188 0.1334,-0.0667 0.20017,0.0297 -0.18484,0.17944 -0.37132,0.36098 -0.55835,0.54173 -0.19841,0.19163 -0.39233,0.38793 -0.59789,0.57193 -0.19441,0.17389 -0.40785,0.32726 -0.60046,0.50308 -0.19578,0.17886 -0.47303,0.26086 -0.63563,0.49617 0.20014,0.14465 0.37791,0.0882 0.53797,-0.0222 0.26254,-0.18123 0.53324,-0.35827 0.76643,-0.57313 0.58672,-0.5413 1.15487,-1.10199 1.72849,-1.6568 0.0728,-0.0705 0.13789,-0.14936 0.20072,-0.22861 0.0557,-0.0703 0.0846,-0.14837 0.0258,-0.23856 -0.0325,-0.0118 -0.0701,-0.0298 -0.11021,-0.0394 -0.57882,-0.13985 -1.14843,-0.30446 -1.6935,-0.53758 -0.29724,-0.12715 -0.59668,-0.25008 -0.89631,-0.37217 -0.0631,-0.0256 -0.13331,-0.0568 -0.18612,0.029 0.12415,0.30886 0.12775,0.33207 0.43142,0.46041 0.40119,0.16931 0.81289,0.31619 1.22025,0.47249 0.099,0.038 0.19841,0.0749 0.378,0.14276 -0.15928,0.0539 -0.23271,0.0881 -0.30926,0.10322 -0.65038,0.12883 -1.30346,0.24259 -1.95165,0.38352 -1.10693,0.24038 -2.22298,0.29734 -3.34172,0.33319 -0.79222,0.0254 -1.57157,-0.0407 -2.34214,-0.18675 -0.19538,-0.037 -0.3949,-0.057 -0.58876,-0.0991 -0.29054,-0.063 -0.58361,-0.12258 -0.86532,-0.21207 -0.85107,-0.27034 -1.6582,-0.64114 -2.42186,-1.08199 -0.77475,-0.44726 -1.54842,-0.90166 -2.26596,-1.43605 -0.0223,-0.0164 -0.0488,-0.0403 -0.0727,-0.0384 -0.0531,0.004 -0.12268,0.006 -0.15379,0.0386 -0.0315,0.0327 -0.0359,0.10278 -0.0304,0.15344 0.003,0.0372 0.0362,0.0765 0.0671,0.10224 z"
       id="path2-6"
       style="fill:#008000;stroke-width:0.12474014" />
    <path
       inkscape:connector-curvature="0"
       d="m 164.33527,135.76123 c 0.76043,-0.0949 1.51265,-0.15558 2.28619,-0.30105 1.94871,-0.36674 3.93254,-0.99055 5.92658,-1.77647 0.81781,-0.32234 1.65034,-0.66084 2.44571,-1.09602 1.94475,-1.0647 3.88872,-2.15337 5.68732,-3.5543 1.17937,-0.91845 2.41137,-1.79017 3.51959,-2.77401 1.52975,-1.35798 3.03895,-2.74687 4.41815,-4.22684 0.0841,-0.0904 0.16332,-0.22074 0.34265,-0.19932 -0.16072,0.39436 -0.32252,0.79274 -0.4857,1.19095 -0.17333,0.42233 -0.33596,0.84426 -0.52631,1.26707 -0.18035,0.39964 -0.40631,0.80032 -0.58223,1.19993 -0.17869,0.40632 -0.56061,0.80761 -0.64372,1.23326 0.42903,-0.0825 0.67107,-0.34362 0.84411,-0.63943 0.28375,-0.48524 0.58364,-0.97563 0.79515,-1.46146 0.53141,-1.22306 1.01869,-2.44451 1.51907,-3.66627 0.0635,-0.15515 0.10815,-0.31 0.14922,-0.46256 0.0365,-0.13528 0.0233,-0.2479 -0.13832,-0.272 -0.0607,0.0253 -0.13459,0.0503 -0.20612,0.086 -1.03136,0.52159 -2.06666,1.00737 -3.11424,1.3954 -0.5715,0.21096 -1.14311,0.42946 -1.71422,0.64941 -0.11995,0.047 -0.256,0.0952 -0.27622,0.24271 0.43102,0.17182 0.45428,0.19106 1.03673,-0.0267 0.76933,-0.28797 1.53863,-0.61063 2.30804,-0.91897 0.18703,-0.0746 0.37365,-0.15191 0.71226,-0.28829 -0.21419,0.23752 -0.30603,0.35641 -0.41721,0.45954 -0.94378,0.87671 -1.90317,1.7412 -2.83429,2.62773 -1.59033,1.51367 -3.33325,2.85134 -5.09637,4.1706 -1.24851,0.93428 -2.54533,1.76065 -3.88818,2.49582 -0.34037,0.18652 -0.67473,0.3949 -1.01664,0.57437 -0.51238,0.26899 -1.02607,0.5446 -1.54417,0.77666 -1.56519,0.70112 -3.13574,1.24958 -4.68935,1.67714 -1.57622,0.43375 -3.15609,0.85892 -4.70628,1.13846 -0.048,0.008 -0.10855,0.0151 -0.1453,0.0443 -0.0821,0.0648 -0.19158,0.14708 -0.21698,0.21561 -0.0252,0.0695 0.02,0.14549 0.0674,0.19064 0.0341,0.0335 0.11539,0.0364 0.18438,0.027 z"
       id="path2-0-0"
       style="fill:#008000;stroke-width:0.19681409" />
    <g
       id="g2873"
       transform="translate(-38.348223,0.13363475)">
      <circle
         r="8.2853556"
         cy="116.78022"
         cx="136.43614"
         id="path2868"
         style="opacity:1;fill:#a3eca4;fill-opacity:0.99607843;fill-rule:nonzero;stroke:none;stroke-width:0.2;stroke-linecap:round;stroke-miterlimit:4;stroke-dasharray:none;stroke-dashoffset:0;stroke-opacity:1" />
      <text
         id="text859-0"
         y="120.4458"
         x="133.42651"
         style="font-style:normal;font-weight:normal;font-size:2.64583325px;line-height:125%;font-family:sans-serif;letter-spacing:0px;word-spacing:0px;fill:#008000;fill-opacity:1;stroke:none;stroke-width:0.26458332px;stroke-linecap:butt;stroke-linejoin:miter;stroke-opacity:1"
         xml:space="preserve"><tspan
           style="font-size:9.87777805px;fill:#008000;stroke-width:0.26458332px"
           y="120.4458"
           x="133.42651"
           id="tspan857-2"
           sodipodi:role="line">2</tspan></text>
    </g>
    <g
       id="g2988"
       transform="translate(-4.0090429,-0.40090429)">
      <circle
         r="8.2853556"
         cy="40.551121"
         cx="102.09696"
         id="path2868-7"
         style="opacity:1;fill:#ff9955;fill-opacity:0.99607843;fill-rule:nonzero;stroke:none;stroke-width:0.2;stroke-linecap:round;stroke-miterlimit:4;stroke-dasharray:none;stroke-dashoffset:0;stroke-opacity:1" />
      <text
         id="text859-0-5"
         y="44.216702"
         x="99.087334"
         style="font-style:normal;font-weight:normal;font-size:2.64583325px;line-height:125%;font-family:sans-serif;letter-spacing:0px;word-spacing:0px;fill:#803300;fill-opacity:1;stroke:none;stroke-width:0.26458332px;stroke-linecap:butt;stroke-linejoin:miter;stroke-opacity:1"
         xml:space="preserve"><tspan
           style="font-size:9.87777805px;fill:#803300;stroke-width:0.26458332px"
           y="44.216702"
           x="99.087334"
           id="tspan857-2-9"
           sodipodi:role="line">1</tspan></text>
    </g>
    <rect
       style="opacity:1;fill:#666666;fill-opacity:1;fill-rule:nonzero;stroke:none;stroke-width:0.23094012;stroke-linecap:round;stroke-miterlimit:4;stroke-dasharray:none;stroke-dashoffset:0;stroke-opacity:1;filter:url(#filter2973)"
       id="rect876-2-6"
       width="53.854809"
       height="17.63979"
       x="118.86813"
       y="37.47752" />
    <rect
       style="opacity:0.86000001;fill:#ff9955;fill-opacity:1;fill-rule:nonzero;stroke:none;stroke-width:0.2309401;stroke-linecap:round;stroke-miterlimit:4;stroke-dasharray:none;stroke-dashoffset:0;stroke-opacity:1"
       id="rect876-2"
       width="53.854809"
       height="17.63979"
       x="118.0502"
       y="36.36311" />
    <text
       xml:space="preserve"
       style="font-style:normal;font-weight:normal;font-size:2.64583325px;line-height:125%;font-family:sans-serif;letter-spacing:0px;word-spacing:0px;fill:#000000;fill-opacity:1;stroke:none;stroke-width:0.26458332px;stroke-linecap:butt;stroke-linejoin:miter;stroke-opacity:1"
       x="109.03127"
       y="132.19226"
       id="text3290"><tspan
         sodipodi:role="line"
         id="tspan3288"
         x="109.03127"
         y="132.19226"
         style="stroke-width:0.26458332px">Si vous voulez travailler sur des grilles </tspan><tspan
         sodipodi:role="line"
         x="109.03127"
         y="135.49956"
         style="stroke-width:0.26458332px"
         id="tspan3294">panse-bêtes déjà enregistrées:</tspan><tspan
         sodipodi:role="line"
         x="109.03127"
         y="138.80684"
         style="stroke-width:0.26458332px"
         id="tspan3292">Vous pouvez :</tspan></text>
    <text
       xml:space="preserve"
       style="font-style:normal;font-weight:normal;font-size:2.64583325px;line-height:125%;font-family:sans-serif;letter-spacing:0px;word-spacing:0px;fill:#000000;fill-opacity:1;stroke:none;stroke-width:0.26458332px;stroke-linecap:butt;stroke-linejoin:miter;stroke-opacity:1"
       x="120.38542"
       y="41.044643"
       id="text3298"><tspan
         sodipodi:role="line"
         id="tspan3296"
         x="120.38542"
         y="41.044643"
         style="stroke-width:0.26458332px">Si vous voulez réaliser une nouvelle </tspan><tspan
         sodipodi:role="line"
         x="120.38542"
         y="44.351936"
         style="stroke-width:0.26458332px"
         id="tspan3300">grille dans un élevage, cliquez sur </tspan><tspan
         sodipodi:role="line"
         x="120.38542"
         y="47.659225"
         style="stroke-width:0.26458332px"
         id="tspan3302">l'icone correspondant au type de </tspan><tspan
         sodipodi:role="line"
         x="120.38542"
         y="50.966518"
         style="stroke-width:0.26458332px"
         id="tspan3304">production</tspan></text>
  </g>
</svg>
