<?xml version="1.0" encoding="UTF-8" standalone="no"?>
<svg
   version="1.1"
   x="0px"
   y="0px"
   viewBox="0 0 100 100"
   id="svg6"
   sodipodi:docname="noun-document-eye-590348.svg"
   inkscape:version="1.1.2 (0a00cf5339, 2022-02-04)"
   xmlns:inkscape="http://www.inkscape.org/namespaces/inkscape"
   xmlns:sodipodi="http://sodipodi.sourceforge.net/DTD/sodipodi-0.dtd"
   xmlns="http://www.w3.org/2000/svg"
   xmlns:svg="http://www.w3.org/2000/svg">
  <defs
     id="defs10" />
  <sodipodi:namedview
     id="namedview8"
     pagecolor="#ffffff"
     bordercolor="#666666"
     borderopacity="1.0"
     inkscape:pageshadow="2"
     inkscape:pageopacity="0.0"
     inkscape:pagecheckerboard="0"
     showgrid="false"
     inkscape:zoom="7.82"
     inkscape:cx="50.063939"
     inkscape:cy="50"
     inkscape:window-width="1920"
     inkscape:window-height="1043"
     inkscape:window-x="0"
     inkscape:window-y="0"
     inkscape:window-maximized="1"
     inkscape:current-layer="svg6" />
  <g
     transform="translate(0,-952.36218)"
     id="g4"
     style="fill:#125e6b;fill-opacity:1">
    <path
       style="text-indent:0;text-transform:none;direction:ltr;block-progression:tb;baseline-shift:baseline;color:#000000;enable-background:accumulate;fill:#125e6b;fill-opacity:1"
       d="m 17.999678,959.36234 c -0.6624,0 -0.9964,0.5527 -1,1 l 0,83.99996 c 0,0.5236 0.4764,0.9999 1,1 l 64,0 c 0.5236,-10e-5 0.9999,-0.4764 1,-1 l 0,-61.99996 c 0.01,-0.2641 -0.097,-0.5288 -0.2812,-0.7188 l -22,-22 c -0.1899,-0.1837 -0.4548,-0.2873 -0.7188,-0.2812 l -42,0 z m 1,2 40,0 0,21 a 1.0001,1.0001 0 0 0 1,1 l 21,0 0,59.99996 -62,0 0,-81.99996 z m 42,1.4062 18.5938,18.5938 -18.5938,0 0,-18.5938 z m -11,37.59376 c -9.1723,0 -17.1338,4.6413 -20.875,11.5 a 1.0001,1.0001 0 0 0 0,0.9688 c 3.7387,6.8634 11.6981,11.5312 20.875,11.5312 9.1768,0 17.1364,-4.6678 20.875,-11.5312 a 1.0001,1.0001 0 0 0 0,-0.9688 c -3.7411,-6.8587 -11.7026,-11.5 -20.875,-11.5 z m 0,2 c 8.2451,0 15.2772,4.1126 18.75,9.9688 -3.4669,5.871 -10.4925,10.0312 -18.75,10.0312 -8.2576,0 -15.283,-4.1601 -18.75,-10.0312 3.4729,-5.8563 10.505,-9.9688 18.75,-9.9688 z m 0,0 c -5.5111,0 -10,4.4891 -10,10 0,5.5109 4.489,10 10,10 5.511,0 10,-4.4891 10,-10 0,-5.5109 -4.4889,-10 -10,-10 z m 0,2 c 4.4301,0 8,3.5699 8,8 0,4.4301 -3.5698,8 -8,8 -4.4302,0 -8,-3.5699 -8,-8 0,-4.4301 3.5699,-8 8,-8 z"
       fill="#000000"
       fill-opacity="1"
       stroke="none"
       marker="none"
       visibility="visible"
       display="inline"
       overflow="visible"
       id="path2" />
  </g>
</svg>
